<svg xmlns="http://www.w3.org/2000/svg" viewBox="0 0 1612.35 823.93"><defs><style>.cls-1{fill:#ebf2fa;}.cls-2{fill:#f0a351;}.cls-3{fill:#4d77cb;}.cls-4{fill:#d87322;}.cls-5{fill:#39415d;}.cls-6{fill:#e78b38;}.cls-7{fill:#193762;}.cls-8{fill:#a8d2a0;}.cls-9{fill:#d26f24;}.cls-10{fill:#6a9eed;}.cls-11{fill:#aa413e;}.cls-12{fill:#689cec;}.cls-13{fill:#f1a350;}.cls-14{fill:#83b47a;}.cls-15{fill:#b6463e;}.cls-16{fill:#253964;}.cls-17{fill:#d6726d;}.cls-18{fill:#fdb17d;}.cls-19{fill:#d3e8fd;}.cls-20{fill:#476aa5;}.cls-21{fill:#e0812f;}.cls-22{fill:#eaf1f9;}.cls-23{fill:#2c468b;}.cls-24{fill:#d26e23;}.cls-25{fill:#cb6317;}.cls-26{fill:#a1c6fd;}.cls-27{fill:#c65547;}.cls-28{fill:#a8d19f;}</style></defs><g id="Layer_2" data-name="Layer 2"><g id="Layer_1-2" data-name="Layer 1"><path class="cls-1" d="M135.82,819.67c-.14-1.69-1.5-2.1-2.61-2.66A77.25,77.25,0,0,1,122,810.12c-3.91-2.93-7.68-6-11.42-9.19a140.34,140.34,0,0,1-12.85-13c-3.32-3.64-6.3-7.64-9.27-11.61-3.47-4.64-6.9-9.32-10.13-14.15-2.68-4-5.22-8.13-7.53-12.39-3.75-6.91-7.43-13.88-10.82-21-2.66-5.6-4.73-11.51-7.24-17.19-5.3-12-9.22-24.59-13.15-37.16-3-9.67-5.21-19.57-7.45-29.45-1.68-7.4-3.25-14.83-4.59-22.3-1-5.31-1.44-10.71-2.18-16.06-.52-3.84-1.15-7.67-1.68-11.51a32.39,32.39,0,0,1-.2-3.56,20.77,20.77,0,0,0-.68-6.55,11.79,11.79,0,0,1-.28-3.54c-.09-3.56.28-7.13-.84-10.62a12.37,12.37,0,0,1-.12-3.56c0-12.61,0-25.21,0-37.82a49.32,49.32,0,0,1,.62-5.52,6.81,6.81,0,0,0,.25-1.5c-.51-5.64,1-11.14,1.08-16.74a76.24,76.24,0,0,1,1.13-10.07c.8-5.16,1.6-10.34,2.67-15.44q2.76-13.14,5.88-26.18c1.06-4.43,2.37-8.81,3.79-13.13a205.32,205.32,0,0,1,10-25.89c3-6.18,6-12.4,9.17-18.48a194.84,194.84,0,0,1,12.81-20.26A173.39,173.39,0,0,1,91.5,350.55a148.65,148.65,0,0,1,25.75-20.15c3.45-2.12,6.78-4.48,10.32-6.4,4.55-2.47,9.24-4.65,13.9-6.87,4.07-1.93,8.18-3.78,12.3-5.61,5.89-2.61,11.77-5.23,17.69-7.74q20-8.47,40-16.85c7.71-3.24,15.46-6.36,23.13-9.72q10.39-4.54,20.61-9.54c5.09-2.48,10.06-5.23,15-8a151.06,151.06,0,0,0,24.32-17,129.48,129.48,0,0,0,13.86-14,90.59,90.59,0,0,0,11.74-17.89c5.45-10.51,8.59-21.87,11.66-33.33,2.4-9,5.3-17.82,8.35-26.57,2.84-8.1,6.05-16.07,9.33-24a148.44,148.44,0,0,1,6.68-14.07c4.55-8.37,8.88-16.9,14.25-24.73,4.32-6.29,8.64-12.56,13.4-18.52C388.2,64.05,392.94,59,397.71,54c3.17-3.31,6.82-6.09,10.16-9.23,2.76-2.59,5.84-4.7,8.78-7a132.47,132.47,0,0,1,15.76-10.56c3.51-2,7.08-4,10.73-5.71,5.23-2.5,10.49-5,15.85-7.13a150.87,150.87,0,0,1,24.74-7.75c6.53-1.41,13-3.07,19.71-3.6,4.1-.33,8.15-1.26,12.24-1.86A28.71,28.71,0,0,1,519,1.07c2.55-.06,5.08.14,7.59-.78a13,13,0,0,1,4.29-.23q13,0,25.92,0a36.34,36.34,0,0,1,9.5.79c2.27.6,4.77.18,7.17.22,2.23.05,4.45-.14,6.64.74a9.33,9.33,0,0,0,3.32.27c2.55.06,5.12-.23,7.57.86a3.72,3.72,0,0,0,1.42.16c5.11,0,10.1,1.1,15.12,1.91,5.65.91,11.35,1.43,17,2.26,4.25.63,8.47,1.45,12.69,2.25,4.68.88,9.35,1.86,14,2.75,4.22.8,8.46,1.46,12.68,2.31,6.08,1.22,12.14,2.57,18.21,3.84,5.61,1.18,11.22,2.36,16.84,3.47,6.55,1.29,13.12,2.49,19.67,3.77,4.22.83,8.4,1.84,12.63,2.59,5.16.93,10.35,1.66,15.53,2.49,2,.32,4.07.7,6.11,1,4.08.65,8.15,1.31,12.24,1.92a22.82,22.82,0,0,0,2.87.09,12.46,12.46,0,0,1,2.87.06c6.79,1.79,13.68.69,20.52.95,3.36.13,6.73-.1,10.08.05,4.51.19,8.84-.9,13.24-1.64,9-1.52,17.55-4.79,26.38-7s17.61-4.47,26.58-5.86c5.18-.8,10.29-2.09,15.48-2.82,4.56-.64,9.18-.8,13.78-1.16a9,9,0,0,0,2.39-.12c3.58-1.36,7.27-.86,10.93-.89q11.52-.09,23,0c3.82,0,7.68-.51,11.41.9a5.07,5.07,0,0,0,1.91.1c5-.16,9.77,1.09,14.65,1.79a178.31,178.31,0,0,1,24.24,5.44c8.44,2.47,16.84,5.16,24.82,9.12,2.46,1.22,5,2.21,7.45,3.47,5.57,2.9,11.18,5.72,16.6,8.91a157.65,157.65,0,0,1,17.39,11.68c5.5,4.33,11,8.69,16.3,13.26a289.66,289.66,0,0,1,25.52,25.38c3.65,4,6.86,8.46,10.28,12.71,2.27,2.83,4.65,5.58,6.82,8.51,4.34,5.85,8.59,11.76,12.82,17.71,2.68,3.78,5.27,7.65,7.86,11.51,1.48,2.21,2.93,4.44,4.27,6.73,5.91,10.07,11.84,20.13,17.64,30.26,4.23,7.39,8.34,14.87,12.4,22.37,2.31,4.27,4.39,8.67,6.63,13,2.85,5.5,5.76,11,8.63,16.45.54,1,1,2.13,1.52,3.19q7.28,15,14.54,29.91c.66,1.37,1.24,2.8,2.78,3.32-1.73,4-3.61,8-5.18,12.06-4.59,12-7.28,24.65-9.52,37.37a554,554,0,0,0-6.86,58.21c-.36,5.26-.75,10.52-1.07,15.78q-.83,13.75-1.56,27.52c-.07,1.36,0,2.73.07,4.09-1.74,0-3.59.38-5.2-.12a22,22,0,0,0-6.58-.69c-5.09,0-10.17,0-15.25,0a12.55,12.55,0,0,1-3.79-.2c-4.37-1.45-8.83-.56-13.24-.79a3.42,3.42,0,0,0-3.14,1.88,19.75,19.75,0,0,0-3,7.35c-2.76-.11-5.51-1.57-8.24-.36-.69,1.87.29,3.19.76,4.56q7.82,22.88,15.71,45.72c-2.2,2.74-1.94,5.44-.14,8.33a19.7,19.7,0,0,0,5.08,5.25c2.4,7.16,4.86,14.29,7.15,21.48a4.84,4.84,0,0,0,4.86,3.84c7.43.58,14.85,1.45,22.26,2.26a15.38,15.38,0,0,1,2.72.82l0,4.07c-1.88.33-3.75.71-5.63,1-4.71.64-9.44,1.2-14.15,1.85-6.45.89-12.88,1.83-19.31,2.74l-8.06,0a187,187,0,0,0-33.62.89,55.73,55.73,0,0,0-28.44,7.46,25.89,25.89,0,0,0-3.56,2.57,22,22,0,0,0-8.15,17.6c0,28,0,56.06.06,84.09a54.6,54.6,0,0,0,2.65,17c.8,2.4,1.62,4.82,3.86,6.23a34.29,34.29,0,0,1-.34,3.53q-8.29,41.31-16.65,82.61c-1.34,6.63-2.64,13.28-4,19.9-.4,2-.41,3.7,1.15,5.1-1.44,2.21-2.58,4.74-4.36,6.58-3.62,3.75-7.49,7.26-11.43,10.62A30.68,30.68,0,0,1,1013,805.8a26.56,26.56,0,0,0-3.55,1.38A44.78,44.78,0,0,0,996,812.09c-.64.34-1.08,1.13-1.57,1.67a7.45,7.45,0,0,0,4.21,5.44c-1.61,1.14-3.43.64-5.14.64q-104.15,0-208.29,0c-2.4,0-4.8-.14-7.18-.23,4.27-.65,8.56-1.15,12.79-2,17.57-3.38,34.4-9,49.83-18.81,14.67-9.31,27-21.18,35.56-37.08,8-14.81,10.72-30.85,9.11-47.7a173.06,173.06,0,0,0-7.79-36.2c-2.1-6.6-4.38-13.14-6.61-19.69-.43-1.27-1.15-2.46-.66-3.9a12,12,0,0,1,1.59,1.08,57.54,57.54,0,0,0,11.1,8,18.78,18.78,0,0,0,8.71,2.41A28.42,28.42,0,0,0,906,662.32c11.11-5.63,20.55-13.66,28.85-23.28.13-.15,0-.58-.07-1-2.12-.57-4.3-1.07-6.43-1.75-9.66-3.08-18.08-8.53-25.66-15.48a43,43,0,0,1-4.77-5.69,3,3,0,0,1-.33-3.48c2.89-1,5.89-.47,8.82.24,3.73.91,7.43,2,11.11,3.14,7.35,2.31,14.67,4.72,22,7.06,5.5,1.75,10.43.53,14.73-3.49a36.41,36.41,0,0,0,7.36-9.33c4.19-7.72,5.58-16.2,6.37-24.87a13.64,13.64,0,0,0-.19-3,26.74,26.74,0,0,0-9.47-17.16C949.36,556.54,939,552.38,927.9,550c-.11-1.28.61-1.71,1.62-2.11,9.38-3.73,17-10.18,23.38-18.17a156.89,156.89,0,0,0,14.59-21.45c4.27-7.62,8-15.53,11.58-23.51.41-.92.88-1.86-.17-2.79-2.92.52-5.88,1.43-8.86,1.51-6.69.17-13.36.35-20.08-.67a152,152,0,0,1-21-4.88,60.28,60.28,0,0,1-14.08-6.39c-2.22-1.36-4.28-2.93-5.08-5.65,2.05-2.56,2.38-3,4.6-3.62,3.24-.88,6.53-1.55,9.82-2.15,4.09-.75,8.31-.63,12.36-1.33,6.82-1.17,13.76,0,20.5-1.66,7.53.31,15-.78,22.48-1.18a16.86,16.86,0,0,0,10.52-4.41A36.88,36.88,0,0,0,998.71,440c4.33-8.83,5.31-18.43,5.75-28.14.08-1.83-.65-3.69-.65-5.54,0-6.19-1.5-12.09-2.83-18a36.12,36.12,0,0,0-14.72-22.39c-8.89-6.34-19-8.65-29.34-10-3.63-.49-7.32-.15-11-.88a20.21,20.21,0,0,0-5.25.19c-1.27.1-2.52.43-3.79.47a112.12,112.12,0,0,0-12.4.95,7.27,7.27,0,0,0-5.72,3.82c-9.19,14.53-18.61,28.89-28.63,42.8-6.52,9-13.14,18-21,25.79a46.85,46.85,0,0,1-5.63,4.73,4.54,4.54,0,0,1-5.4.15,13.5,13.5,0,0,1,.33-7.12,126.86,126.86,0,0,1,6.4-17.59c6.82-15,14-29.83,22-44.22a9.86,9.86,0,0,0,.5-2.92,36.18,36.18,0,0,0-10.38.17,182.4,182.4,0,0,0-25,6.72c-11.26,3.88-22.28,8.4-33.17,13.28-6.63,3-13.21,6-19.79,9.11a36.77,36.77,0,0,0-3.56,2.12c-.06,1.23-.12,2.08-.13,2.92-.09,18.72.77,37.44-.75,56.14a121.21,121.21,0,0,1-3.13,20.57,19,19,0,0,1-2.21,5.06c-1.86,3.06-5.25,2.8-6.94-.4a2.62,2.62,0,0,1-.19-.46c-1-3.05-2.11-6.05-2.08-9.38.11-9.86-.59-19.73.86-29.56.69-4.69.76-9.48,1.36-14.18.71-5.54,1.72-11,2.55-16.57.26-1.76.35-3.55.54-5.58a33.4,33.4,0,0,0-10.16,4.09,113,113,0,0,0-23.89,18.65c-3.45,3.55-6.75,7.27-10.2,10.83-8,8.24-11.51,18.69-12.7,30.08-.84,8.08.85,15.94,3.91,23.35a71.55,71.55,0,0,0,10.74,18,17.8,17.8,0,0,1,1.65,3c-3.49.3-7,.62-10.47.91l-11.41.91a17.46,17.46,0,0,0-3-7.92,56.88,56.88,0,0,0-4.83-6.28A122.82,122.82,0,0,0,702,484.89a70.89,70.89,0,0,0-16.24-10.57,25,25,0,0,0-3.37-1,21.16,21.16,0,0,0-.17,3.83c.83,5.17,1.51,10.34,2.13,15.54,1,7.9,1.87,15.77,1.64,23.74l-10.65-.12c-1.08-6.74-.94-13.53-1-20.32,0-5.27,0-10.54,0-15.82,0-3.57,0-7.14.12-10.71.11-2.43-.81-3.59-2.93-4.51-7.53-3.26-14.94-6.85-22.45-10.16-3.37-1.48-6.88-2.59-10.33-3.87-.64-1.24-1.27-2.48-1.9-3.72.68-1.51,1.34-3,2-4.53,3.61-7.49,7.31-14.93,10.82-22.47,1.54-3.3,2.7-6.81,4-10.22,1.32-3.95,2.83-7.83,3.92-11.85,1.06-3.86.88-7.67-2-10.81A4.94,4.94,0,0,1,655,386c.41-1.07.57-2.48,1.32-3.13a6.24,6.24,0,0,1,3.49-1.34,22.13,22.13,0,0,1,4.24.48c5.28.63,9.8-.92,13.13-5.5a19.91,19.91,0,0,0,3.8-8.12c.46-2.48-1.32-3.94-3.48-2.87-1.72.86-3.35,1.94-5,3a8.59,8.59,0,0,1-4.91,1.74c-4.29-.17-8.63,0-12.87-.58a6.2,6.2,0,0,0-6.61,2.87,34.12,34.12,0,0,0-5.26,10.76,12.44,12.44,0,0,0-8,4.88c-1.62,2.06-3.35,4-4.95,6.09-2.2,2.85-4.32,5.75-6.48,8.64-.6-1.57-1.26-3.1-1.77-4.69-4.16-13-8.33-26.07-12.4-39.14a46.44,46.44,0,0,0-13.94-21.55,39.14,39.14,0,0,0-19.46-9.24c-6.17-1.07-12.39-.53-18.57.25a6.15,6.15,0,0,0-1-.11q-22.11.3-44.23.64a5.91,5.91,0,0,0-.94.13l-.87-.57c-.34-1.14-.67-2.28-1-3.43,0-2.38.1-4.77,0-7.15a41.64,41.64,0,0,0-3-13.87c-1.8-4.33-4.35-8.24-8.54-9.95a32,32,0,0,1-11.94-9c-3.81-4.3-8.77-5.37-14.1-4.74-1.9.23-3.77.74-5.66,1.12-.62.13-1.41.58-1.84.33-1.84-1.08-3.09.11-4.26,1.19a7.13,7.13,0,0,1-6.14,2.17,10.73,10.73,0,0,0-2.4.05c-10.11.84-17.5,5.92-21.71,15.9a52,52,0,0,0-3,10.74c-1.15,6.08-.8,12.22-.91,18.34-4.93.23-9.87.53-14.8.66-15.93.41-31.86.74-47.79,1.14q-22.93.6-45.87,1.28a13.22,13.22,0,0,1-5.91-1.8,38.09,38.09,0,0,0-17.16-4c-4.92-.13-9.87.53-14.8.87a2.87,2.87,0,0,0-.88.4,127.68,127.68,0,0,0-30.64,5.56A57.14,57.14,0,0,0,236,339.7a17.65,17.65,0,0,0-8.16,9.66c-1,2.86-2,5.74-2.83,8.67a220.64,220.64,0,0,0-5.59,29.49c-1.22,8.92-2.24,17.88-3.24,26.83q-1.82,16.23-3.45,32.47c-.82,8.12-1.52,16.26-2.23,24.39q-1.4,16-2.72,32c-.43,5.26-.78,10.52-1.12,15.79-.84,13.07-1.83,26.14-2.42,39.23-.61,13.44-.81,26.89-1.2,40.34,0,.85-.09,1.7-.13,2.55l-4.59-2.66c-1.68-1-3.34-2-5-2.92-.7-.38-1.49-.67-2.16.19.52,4.69.77,9.44,1.63,14.06,1.1,5.94.63,11.87.75,17.82a8.94,8.94,0,0,1-1.36,4.82c-.8,1.34-2.29,1.28-3.13-.11a17.23,17.23,0,0,1-2.12-7.77c-.43-6.09-1.37-12.15-1.09-18.31.19-4.08.09-8.17.07-12.26,0-1.17-.19-2.33-.29-3.46-1-.59-1.79-1.17-2.66-1.57a247.86,247.86,0,0,0-25.44-10.55c-2.89-1-5.82-1.8-8.78-2.5-2.17-.52-4.4-.74-6.61-1.05a1.27,1.27,0,0,0-1.19,1.73c.26.61.61,1.18.91,1.78,2.95,5.84,6,11.63,8.8,17.57,1.63,3.49,2.86,7.2,4.15,10.86a4.11,4.11,0,0,1-.36,4.19c-2.29-.21-3.63-1.67-5-3.08-6.13-6.3-11-13.67-16-21-3.16-4.68-6.26-9.42-9.3-14-3.07-.45-5.9-.94-8.75-1.27-3.37-.38-6.67.45-10,.74a31.45,31.45,0,0,0-10.57,3.11,17.82,17.82,0,0,0-9.81,11.86c-.6,2.11-1,4.29-1.36,6.46a34.47,34.47,0,0,0,1.42,18,18.4,18.4,0,0,0,5,7.39,7.81,7.81,0,0,0,4.73,2.26c4,.33,7.94.78,11.92.94,5.43.22,10.87.07,16.23,1.17,2.17.44,4.43.57,6.13,2.51-.35,2.46-2.12,3.4-3.88,4.12-6.43,2.64-13,4.85-20,4.68q-3.6-.09-7.2-.09c-.74,0-1.63-.24-2.16,1.11.27.72.57,1.66,1,2.56a90,90,0,0,0,11,18.52,33.88,33.88,0,0,0,9.93,8.63,14.85,14.85,0,0,0,11.15,1.49,46.81,46.81,0,0,0,17.61-7.73,64.07,64.07,0,0,1,6.2-3.86c5.69-3.18,11.75-2.81,17.79-1.72,2.89.52,4.16,1.8,3.78,3.06-.59,1.94-2.26,2.25-3.84,2.49-4.73.72-9.48,1.34-14.21,2.07-5.24.81-10.42,2-14.81,5.34a76.75,76.75,0,0,0-7.34,6.54c-4.3,4.31-3.5,7.61,2.17,9.44,6.93,2.24,14.12,2.54,21.27,3a17.2,17.2,0,0,0,3.33-.35,25.06,25.06,0,0,1,3.32-.4,42.51,42.51,0,0,0,13.19-2.24c5.56-1.69,10.93-3.92,14.49-9.29.31-.46,1.1-.55,1.67-.81,2.12,3.38,4.37,6.66,6.3,10.15,1.69,3.06,2.9,6.42,4.52,9.53a47.46,47.46,0,0,1,4.27,13.42,50.89,50.89,0,0,1,.92,8.06c.13,5.24,0,10.48,0,15.72-2.08,0-4.16.08-6.24.08-12.15,0-24.31,0-36.47,0-1.18,0-2.82-.65-3.41.95-.67,1.83,1.55,1.77,2.22,3.1.31,2.11.76,4.44,1,6.8a80.12,80.12,0,0,0,8,28.17c8.29,16.94,20.38,29.94,36.54,38.5a37.94,37.94,0,0,1,3.56,2.43l-33,0c-2.39,0-4.78-.05-7.17,0-4.05.15-6.9,2.39-8.72,6.11a22.17,22.17,0,0,0-1.13,3.87Z"/><path class="cls-1" d="M1389.85,447.81c6.15.61,12-1.53,17.92-2.49,4.08-.65,8.12-1.62,12.28-1.64,1.89,0,3.77-.51,5.66-.67,4.62-.39,9.23-.73,13.83.21a15.38,15.38,0,0,0,2.82.47c14.17.15,27.65,4.05,41.11,8.26,12.19,3.81,23.43,9.94,34.53,16.31,7.84,4.5,15.09,10.09,22.28,15.75,8.39,6.61,15.58,14.56,22.88,22.39a163.4,163.4,0,0,1,23.17,32.25c2.44,4.38,5,8.7,7.1,13.27,2.7,6,5.13,12.07,7.36,18.24a178.89,178.89,0,0,1,7.29,26.34c1,5.28,1.76,10.64,2.47,16,.63,4.75.27,9.53,1,14.17a75.87,75.87,0,0,1,.78,11.14,8.24,8.24,0,0,1-.1,2.54c-1.24,3.81-.68,7.75-.87,11.64-.1,2-.46,4-.67,6-.35,3.36-.58,6.71-1.15,10.07-1.29,7.66-2.77,15.26-4.66,22.79a260.66,260.66,0,0,1-10,30.78c-3,7.67-6,15.36-10.49,22.28-2,3.07-3.74,6.31-5.63,9.46-2.59,4.29-5.81,8.06-8.76,12.05a126.54,126.54,0,0,1-9,10.51,136.28,136.28,0,0,1-16.18,14.24A152.87,152.87,0,0,1,1524,803.81c-5.37,3-11,5.37-16.6,7.82-2.47,1.08-4.87,2.7-7.76,2.23a11.92,11.92,0,0,1-1.26-1.5,42.4,42.4,0,0,0-12.61-13.09c-9.45-6.62-20-9.68-31.1-10.95-1.22-.14-2.6.26-3.69-1.27,0-1.47,0-3.16,0-4.86.23-7.48.5-15,.72-22.45q.46-15.82.88-31.65.57-21.71,1.13-43.4.67-27.83,1.3-55.66c0-1.53.18-3.06.36-4.58.11-1,.38-1.89.62-3.07,2.15,0,4-.13,6-.13q40.54,0,81.08,0a37.62,37.62,0,0,0,5.71-.5,6.69,6.69,0,0,0,4.46-2.78c2.94-4.05,3-8.57,1.29-13.05-1.57-4.12-4.93-5.55-8.92-5.56h-2.88q-22.31,0-44.62,0c-1.92,0-3.83-.14-5.75-.22a14.28,14.28,0,0,1,6.21-5.23c1.58-.81,3.27-1.4,4.8-2.29a8.25,8.25,0,0,0,3.89-5.57,3.46,3.46,0,0,0-2.89-4.35c-1.07-.18-2.16-.29-3.25-.43-.2-.86-.37-1.51-.49-2.17a2.26,2.26,0,0,0-2.35-2.06c-1.12,0-2.24,0-3.36,0-3.51,0-7-.13-10.54,0s-6.93.62-10.67,1c-1.13,6.79-.66,13.07,4.74,18,1.06,1,2.62,1.46,2.68,3.33l-59.18,0a11.12,11.12,0,0,1,6.32-5.61,30.67,30.67,0,0,0,5.54-2.88,6.65,6.65,0,0,0,2.69-6.15,2.79,2.79,0,0,0-2.27-2.84c-1.24-.22-2.5-.26-3.85-.39-.4-1.35-.76-2.59-1.18-4-1.36-.14-2.6-.36-3.84-.38-3.34-.06-6.68,0-10,0-1.75,0-3.58-.29-5.23.17a12.42,12.42,0,0,1-6.63.08c-1,2.82-.5,5.54-.52,8.19a12.77,12.77,0,0,0,5.22,10.83c1,.77,2.22,1.4,2.53,2.9l-24.21,0q0-20.13,0-40.25c0-2.2-.4-4.4-.39-6.6,0-4-1.76-7.55-2.37-11.38.34-5.43.7-10.85,1-16.28.31-5.6.64-11.21.79-16.82.32-11.56,1.1-23.1,2.09-34.61C1388.3,464.72,1389.09,456.27,1389.85,447.81Z"/><path class="cls-2" d="M1389.85,447.81c-.76,8.46-1.55,16.91-2.28,25.38-1,11.51-1.77,23.05-2.09,34.61-.15,5.61-.48,11.22-.79,16.82-.29,5.43-.65,10.85-1,16.27-.58-.22-1.33-.28-1.74-.7-3.42-3.54-7.58-4.58-12.21-4.49-6.19.11-12.38,0-18.57,0-.62-12.4,1.35-24.72,1-37.12a3.4,3.4,0,0,1,.06-1c1.22-4,.72-8.08.88-12.14,0-1.35.08-2.71.21-4.06.2-2.18.54-4.35.7-6.53.4-5.4.72-10.81,1.09-16.21,0-.33.13-.66.17-1,.55-5,1.11-10.05,1.63-15.09.41-4,.74-8.08,1.17-12.11.3-2.85.59-5.71,1.06-8.53,1.39-8.33,3-16.63,2.67-25.16a2.14,2.14,0,0,0,1.8-2c.72-4.66,1.34-9.35,2.31-13.95,2.23-10.54,4.84-21,6.91-31.56,1.59-8.07,3.07-16.21,3.31-24.51a4.41,4.41,0,0,1,.15-1.51c1.07-2.77.81-5.68.76-8.55-.08-5.91,0-11.79-.79-17.73a69.06,69.06,0,0,0-5.59-20.31c-3-6.45-7-11.65-13.7-14.05-.46-.17-.71-1-1.06-1.54,5.91,0,11.82,0,17.72.09,3.52.07,7,.56,10.53.47,5.15-.15,9.3,2,13,5.52a34.49,34.49,0,0,1,8.42,12.89,71.57,71.57,0,0,1,4.06,17.27c1.34,11.06.58,22.05-.64,33.07-1.47,13.21-4.27,26.12-7.23,39-3.11,13.55-5.58,27.24-7.5,41-1.22,8.75-2.4,17.5-3.49,26.26C1390.36,440.35,1390.17,444.09,1389.85,447.81Z"/><path class="cls-3" d="M1386.49,599.13l24.21,0,11.25.13,59.18,0,11.23-.17c1.92.08,3.83.22,5.75.22q22.31,0,44.62,0h2.88c4,0,7.35,1.44,8.92,5.56,1.71,4.48,1.65,9-1.29,13.05a6.69,6.69,0,0,1-4.46,2.78,37.62,37.62,0,0,1-5.71.5q-40.53,0-81.08,0c-1.9,0-3.8.08-6,.13-.24,1.18-.51,2.12-.62,3.07-.18,1.52-.32,3-.36,4.58q-.66,27.83-1.3,55.66-.52,21.7-1.13,43.4-.42,15.82-.88,31.65c-.22,7.48-.49,15-.72,22.45,0,1.7,0,3.39,0,4.86,1.09,1.53,2.47,1.13,3.69,1.27,11.11,1.27,21.65,4.33,31.1,10.95a42.4,42.4,0,0,1,12.61,13.09,11.92,11.92,0,0,0,1.26,1.5l2.28,5.89c-1,0-1.9.12-2.86.12H1396.71c-1.12,0-2.23-.09-3.35-.13a40.5,40.5,0,0,1,14-18.94,60.87,60.87,0,0,1,26.38-11.45c3.57-.66,7.19-1.05,11-1.6.09-1.35.25-2.49.22-3.64,0-1.52-.31-3-.36-4.57q-.54-17.07-1-34.15-.43-14.28-.88-28.55c-.36-11.73-.74-23.45-1.06-35.18-.47-17.17-.88-34.33-1.35-51.5,0-1.87-.25-3.73-.43-5.59-.09-1-.29-1.92-.47-3.07-1.68-.1-3.09-.25-4.5-.25q-22.28,0-44.56,0c-1.28,0-2.55.14-3.82.21-1.73-.18-3.46-.52-5.19-.53-9.88,0-19.75,0-29.63,0-1.27,0-2.55,0-3.82,0-4,0-7.49-3.91-8-8.06a24,24,0,0,1-.06-4.07c.3-5.27,3.52-8.83,8.43-9.34a31,31,0,0,1,3.34,0q14.82,0,29.63,0C1383,599.33,1384.74,599.2,1386.49,599.13Z"/><path class="cls-4" d="M1361.85,396.77c.28,8.53-1.28,16.83-2.67,25.16-.47,2.82-.76,5.68-1.06,8.53-.43,4-.76,8.08-1.17,12.11-.52,5-1.08,10.06-1.63,15.09,0,.34-.15.67-.17,1-.37,5.4-.69,10.81-1.09,16.21-.16,2.18-.5,4.35-.7,6.53-.13,1.35-.16,2.71-.21,4.06-.16,4.06.34,8.17-.88,12.14a3.4,3.4,0,0,0-.06,1c.32,12.4-1.65,24.72-1,37.12l-30.76,0c-.48-3.19-1-6.37-1.45-9.55-2-13.1-3.81-26.21-3.51-39.53,2.11-.8,4.25-1.51,6.32-2.42,6.14-2.7,7.64-4.77,8.15-11.73.69-9.33,1.39-18.66,1.82-28,.49-10.88.78-21.78,1-32.67.19-9,.19-18.05.19-27.07,0-11.92.09-23.84-1-35.72-.18-2-.56-4-.8-6a8.73,8.73,0,0,0-4.05-6.62,68.64,68.64,0,0,0-8.86-5c-10.39-4.54-21.3-7.12-32.33-9.19a17.32,17.32,0,0,1-2.3-5.42c-.74-2.65.27-5,.26-7.47,0-6.43,1.49-12.65,2.15-19a9,9,0,0,1,1-2.76c.65-1.34,1.38-2.63,2.08-3.95a47.21,47.21,0,0,1,4.35-2,30.4,30.4,0,0,0,15.26-11.69c2-3,3.85-6.2,5.76-9.3l1.13.09,1-.76a.9.9,0,0,1,.9,0c-.1,2.55,1.31,4.51,2.38,6.57,4.21,8.19,8.76,16.19,12.69,24.53,3.56,7.57,6.57,15.45,9.67,23.27A305,305,0,0,1,1353.65,350c1.73,6.69,2.94,13.52,4.46,20.27a105.4,105.4,0,0,1,1.91,13C1360.46,387.77,1361.23,392.26,1361.85,396.77Z"/><path class="cls-5" d="M1393.36,819.74c1.12,0,2.23.13,3.35.13H1499.1c1,0,1.91-.08,2.86-.12,4,0,8,.1,12,.1h64.3c1.44,0,2.88,0,4.31.1a1.87,1.87,0,0,1,1.73,2,2,2,0,0,1-1.92,1.89,17.51,17.51,0,0,1-1.92.06c-1.28,0-2.56,0-3.84,0H7.42c-1.76,0-3.52,0-5.28,0A2,2,0,0,1,0,821.71,1.86,1.86,0,0,1,2,819.9c1.44,0,2.88,0,4.31,0H130.07c1.92,0,3.83-.11,5.75-.18l28.7.06c1.6,0,3.19.13,4.79.13H323.7c1.76,0,3.51-.11,5.27-.17h25.77c1.92.07,3.83.19,5.74.2l149.42,0c1.44,0,2.87-.13,4.3-.2,1.75,0,3.51.15,5.26.15h39.78c2.23,0,4.46-.11,6.7-.17,1.27.07,2.54.2,3.81.2q75.88,0,151.78,0c1.59,0,3.18-.15,4.77-.22.79.07,1.58.2,2.38.2q23,0,46,0c1.11,0,2.22-.16,3.33-.25,2.39.08,4.79.22,7.19.22q104.15,0,208.29,0c1.71,0,3.53.5,5.13-.65,1.4,1.23,3.06.65,4.59.65q25.08.07,50.17,0c2.06,0,4.13-.1,6.2-.15l17.54-.25,9.22.33c.64,0,1.27.05,1.91.05h105.22c1.27,0,2.54-.14,3.81-.21,1.6.07,3.19.21,4.78.21h84.41c1.43,0,2.87-.09,4.31-.14l19.21,0c1.44.06,2.87.18,4.31.18h75.26C1390.81,819.86,1392.09,819.78,1393.36,819.74Z"/><path class="cls-6" d="M1175.73,426.14c0-1.36-.14-2.73-.07-4.09q.75-13.76,1.56-27.52c.32-5.26.71-10.52,1.07-15.78a554,554,0,0,1,6.86-58.21c2.24-12.72,4.93-25.33,9.52-37.37,1.57-4.09,3.45-8.05,5.18-12.06,1.15-1.63,2.3-3.25,3.43-4.89a25.51,25.51,0,0,1,6.21-6.31,15.89,15.89,0,0,1,9.91-3.19c3.2.13,6.39.28,9.58.43l7.65.36a.6.6,0,0,1,.35.64c0,.53-.09,1.07-.14,1.61-2.89.35-4.3,2.89-5.82,4.92a139.06,139.06,0,0,0-18.83,35.86,242.68,242.68,0,0,0-11.5,46.6c-1.11,7.3-2.43,14.68-2.16,22.18a4.2,4.2,0,0,1-.13,1.51c-1.14,3.12-.79,6.38-.8,9.59,0,9,.05,18,0,27.06a273.77,273.77,0,0,0,1.2,32.53c-.88,3.77-1.62,7.58-2.69,11.29-.4,1.35-1.56,2.46-2.37,3.67l-1.86-2.2c0-.25,0-.5,0-.74a14.4,14.4,0,0,0-2.88-9.36l0,0c0-1.14.18-2.37-1-3.1l0,0c-.14-1.09-.61-1.87-1.72-1.93-1.7-.08-3.39-.1-5.09-.15a43.56,43.56,0,0,0,0-5.94,10.75,10.75,0,0,0-1.56-4c-.85-1.38-2.39-1.37-3.8-1.41Z"/><path class="cls-7" d="M1237,258.15a.6.6,0,0,0-.35-.64,76.89,76.89,0,0,1-.74-15.24,34,34,0,0,1,5.69-17c5.11-7.9,11.75-13.75,19.25-18.78a19.84,19.84,0,0,1,14.15-3.34c1.8.24,3.7,1.22,5.54-.24.33-.27,1.21.08,1.78.31a11,11,0,0,1,2.57,1.33c2,1.48,4,1.61,6.33,1.27a26.76,26.76,0,0,1,8.09.07c7.66,1.28,13.07,5.95,16.39,13.36a43.27,43.27,0,0,1,3.34,20.35,55.13,55.13,0,0,1-4,18.75,3.33,3.33,0,0,0-.07,1l-.43,1.23c-1.91,3.1-3.71,6.3-5.76,9.3a30.4,30.4,0,0,1-15.26,11.69,47.21,47.21,0,0,0-4.35,2,62.84,62.84,0,0,0,1.49-6.95c.27-2.47,1.52-4.87.79-7.52-2.07-.74-4-1.51-6-2.11-7.49-2.29-12.86-7.4-16.88-14.28a52.56,52.56,0,0,1-3.7-7.15c-2-5-3.7-10.14-5.55-15.21-.32-.9-.19-2.09-1.3-2.53a23.42,23.42,0,0,0-11.31,11.82c-1.12,2.63-2,5.39-3,8.06s-2,5-3.1,7.47C1239.86,256.74,1238.84,258.06,1237,258.15Z"/><path class="cls-6" d="M1361.85,396.77c-.62-4.51-1.39-9-1.83-13.53a105.4,105.4,0,0,0-1.91-13c-1.52-6.75-2.73-13.58-4.46-20.27a305,305,0,0,0-11.37-35.63c-3.1-7.82-6.11-15.7-9.67-23.27-3.93-8.34-8.48-16.34-12.69-24.53-1.07-2.06-2.48-4-2.38-6.57,6.32,0,12.65,0,19,.14,5.22.11,10.44.41,15.66.65,1.26.06,2.52.19,3.78.29.35.53.6,1.37,1.06,1.54,6.65,2.4,10.65,7.6,13.7,14.05a69.06,69.06,0,0,1,5.59,20.31c.83,5.94.71,11.82.79,17.73.05,2.87.31,5.78-.76,8.55a4.41,4.41,0,0,0-.15,1.51c-.24,8.3-1.72,16.44-3.31,24.51-2.07,10.57-4.68,21-6.91,31.56-1,4.6-1.59,9.29-2.31,13.95A2.14,2.14,0,0,1,1361.85,396.77Z"/><path class="cls-2" d="M1314.5,260.6l.43-1.23a.83.83,0,0,1,.72.3,8.68,8.68,0,0,1,0,1Z"/><path class="cls-6" d="M1315.63,260.69a8.68,8.68,0,0,0,0-1l1,.26Z"/><path class="cls-8" d="M744.6,510.08a17.8,17.8,0,0,0-1.65-3,71.55,71.55,0,0,1-10.74-18c-3.06-7.41-4.75-15.27-3.91-23.35,1.19-11.39,4.71-21.84,12.7-30.08,3.45-3.56,6.75-7.28,10.2-10.83a113,113,0,0,1,23.89-18.65A33.4,33.4,0,0,1,785.25,402c-.19,2-.28,3.82-.54,5.58-.83,5.53-1.84,11-2.55,16.57-.6,4.7-.67,9.49-1.36,14.18-1.45,9.83-.75,19.7-.86,29.56,0,3.33,1.08,6.33,2.08,9.38a2.62,2.62,0,0,0,.19.46c1.69,3.2,5.08,3.46,6.94.4a19,19,0,0,0,2.21-5.06,121.21,121.21,0,0,0,3.13-20.57c1.52-18.7.66-37.42.75-56.14,0-.84.07-1.69.13-2.92a36.77,36.77,0,0,1,3.56-2.12c6.58-3.08,13.16-6.15,19.79-9.11,10.89-4.88,21.91-9.4,33.17-13.28a182.4,182.4,0,0,1,25-6.72,36.18,36.18,0,0,1,10.38-.17,9.86,9.86,0,0,1-.5,2.92c-7.95,14.39-15.14,29.2-22,44.22a126.86,126.86,0,0,0-6.4,17.59,13.5,13.5,0,0,0-.33,7.12,4.54,4.54,0,0,0,5.4-.15,46.85,46.85,0,0,0,5.63-4.73c7.88-7.78,14.5-16.75,21-25.79,10-13.91,19.44-28.27,28.63-42.8a7.27,7.27,0,0,1,5.72-3.82,112.12,112.12,0,0,1,12.4-.95c1.27,0,2.52-.37,3.79-.47A20.21,20.21,0,0,1,946,355c3.65.73,7.34.39,11,.88,10.35,1.37,20.45,3.68,29.34,10A36.12,36.12,0,0,1,1001,388.31c1.33,5.95,2.83,11.85,2.83,18,0,1.85.73,3.71.65,5.54-.44,9.71-1.42,19.31-5.75,28.14a36.88,36.88,0,0,1-8.63,11.49,16.86,16.86,0,0,1-10.52,4.41c-7.49.4-14.95,1.49-22.48,1.18-6.74,1.64-13.68.49-20.5,1.66-4.05.7-8.27.58-12.36,1.33-3.29.6-6.58,1.27-9.82,2.15-2.22.59-2.55,1.06-4.6,3.62.8,2.72,2.86,4.29,5.08,5.65A60.28,60.28,0,0,0,929,477.91a152,152,0,0,0,21,4.88c6.72,1,13.39.84,20.08.67,3-.08,5.94-1,8.86-1.51,1.05.93.58,1.87.17,2.79-3.6,8-7.31,15.89-11.58,23.51A156.89,156.89,0,0,1,952.9,529.7c-6.41,8-14,14.44-23.38,18.17-1,.4-1.73.83-1.62,2.11l-2.86.09c-.95-1.32-2.32-1-3.54-.91a53.79,53.79,0,0,1-13.8-1.39c-1.89-.37-3.72-1-5.66-.68-.33-.35-.6-.87-1-1-4.09-1.76-8.2-3.47-12.32-5.17a6.41,6.41,0,0,0-1.4-.25,7,7,0,0,0-1.29-1.46c-6.41-4.14-12.77-8.37-19.3-12.29-6.88-4.13-14.15-7-22.28-6.59-3.35.18-6.71.12-10.06.07a33.53,33.53,0,0,0-11.23,2.21,14.52,14.52,0,0,0-3.44,1.76c-2.54,1.72-2.66,3.91-.23,5.63a20.34,20.34,0,0,0,4.7,2.48,25,25,0,0,0,5.12,1.22c5.36.75,10.73,1.38,16.1,2.11,3.62.49,7.23,1.15,10.86,1.58,5.7.67,11.19,2.7,17,2.76a1.93,1.93,0,0,0,1.36,1.78c5.29,2.3,10.35,5,14.61,9.22,1.44,1.43,3.08,2.94,5.25,3.27a6.68,6.68,0,0,0,.93,2.13c2.34,2.4,4.78,4.7,7.21,7,.68.65,1.45,1.21,2.17,1.81.5,1.43,1,2.86,1.51,4.27.65,1.74.58,3.4-.77,4.69A19.37,19.37,0,0,1,901,578a54.61,54.61,0,0,1-9.42,3.61A68.5,68.5,0,0,1,879,584c-4.1.32-8.17,1.66-12.25,1.65-9.07,0-18.19,1.11-27.22-.78a14.55,14.55,0,0,0-2.88,0,9.14,9.14,0,0,1-.94-1.12c-3.77-6.48-7.44-13-11.3-19.46-6.27-10.42-13-20.54-20-30.42a79.18,79.18,0,0,0-14.86-16.42c4.2-6.46,9.64-11.73,14.7-17.36A137.77,137.77,0,0,1,818,486.71c6.49-5.45,13.22-10.58,20-15.58,5-3.66,10.24-6.87,15.34-10.32,13.87-9.4,28.51-17.32,43.08-25.37,4.52-2.5,9.25-4.57,13.82-7,12.43-6.55,25.12-12.49,37.91-18.17a26.63,26.63,0,0,0,3.62-2.35,7.06,7.06,0,0,0,.91-.11c.13,0,.25-.18.37-.27-.23-.11-.53-.38-.69-.31s-.39.45-.58.7a9.52,9.52,0,0,0-4.64.9c-3.37,1.52-6.85,2.77-10.25,4.21-10.35,4.39-20.74,8.68-31,13.26-8.52,3.8-17,7.68-25.31,12-12.31,6.42-24.6,13-36.59,20-8.89,5.25-17.33,11.4-25.93,17.22a165.35,165.35,0,0,0-19.48,15.5c-5.42,5-10.3,10.66-15.29,16.16a13.39,13.39,0,0,0-3.48,6A11.63,11.63,0,0,1,778,513a83.32,83.32,0,0,0-21.52-2.88C752.51,510.17,748.56,510.1,744.6,510.08Zm212-104.17a8.65,8.65,0,0,0-.89.1c-.14,0-.26.17-.38.25.23.12.51.38.66.31s.4-.45.59-.69a8.78,8.78,0,0,0,.88-.1,1.14,1.14,0,0,0,.38-.25c-.22-.11-.51-.37-.66-.3S956.83,405.68,956.64,405.91Zm4-1.79-.4.13c0,.12.06.34.1.34a1.18,1.18,0,0,0,.4-.1Z"/><path class="cls-9" d="M202.88,601.16c0-.85.11-1.7.13-2.55.39-13.45.59-26.9,1.2-40.34.59-13.09,1.58-26.16,2.42-39.23.34-5.27.69-10.53,1.12-15.79q1.32-16,2.72-32c.71-8.13,1.41-16.27,2.23-24.39q1.63-16.24,3.45-32.47c1-9,2-17.91,3.24-26.83A220.64,220.64,0,0,1,225,358c.82-2.93,1.83-5.81,2.83-8.67A17.65,17.65,0,0,1,236,339.7a57.14,57.14,0,0,1,11.93-5.28,127.67,127.67,0,0,1,30.65-5.56c3.92.23,6.9,2.22,9.41,5.36,1.75,2.19,2.25,4.88,2.9,7.46C294,353.94,297,366.26,300,378.55c1.75,7.05,3.47,14.11,5.26,21.14,2.67,10.48,5.45,20.92,8.1,31.4,2.72,10.8,5.3,21.65,8,32.45,3.86,15.23,7.82,30.42,11.72,45.63q2.78,10.8,5.5,21.61a24.76,24.76,0,0,1-1.38,2.66c-4.12,6.06-8.19,12.18-12.46,18.12-3,4.18-6.29,8.16-9.54,12.14a23,23,0,0,1-7.06,6,2.9,2.9,0,0,1-2.21.17,2.14,2.14,0,0,1-.9-2.65,49.77,49.77,0,0,1,2-7.32c2.31-5.61,4.75-11.16,7.37-16.62,2.76-5.76,5.79-11.37,8.67-17.06.51-1,1.36-2,.36-3.41-3.28-.74-6.57.32-9.76,1.1-16.75,4.1-32.57,11-48,18.82a7.4,7.4,0,0,0-1.25,1.1v5c0,9.54.18,19.08-.15,28.61a124.18,124.18,0,0,1-2,16.16c-.32,1.91-1.51,3.69-2.47,5.43a1.7,1.7,0,0,1-2.57.18,5.86,5.86,0,0,1-2.15-3.86c-.65-4.19-1.37-8.39-.95-12.68.27-2.7.44-5.42.65-8.13.13-1.52.18-3.06.38-4.57.77-5.72,1.62-11.42,2.37-17.14a21.82,21.82,0,0,0-.07-3.5,5.47,5.47,0,0,0-1.66.22c-3.66,2.08-7.42,4-10.9,6.37-6,4.06-10.86,9.48-15.81,14.82-8.22,8.88-10.38,24-5.31,35.12a52.71,52.71,0,0,0,8.3,13.06c4.58,5.24,9.53,10.06,15.7,13.21,1.06,4.94-.31,9.72-1,14.51a92.93,92.93,0,0,1-2.51,9.71c-.45-.15-1.1-.13-1.32-.46-4.13-6-9.81-10-15.58-13.94-3.11-2.11-6.38-3.78-10.14-4.07.22-1,.42-2,.66-2.94,2.28-9.06.52-17-5.67-23.76-1.44-1.58-2.92-3.11-4.38-4.67Z"/><path class="cls-10" d="M623.37,402.93c2.16-2.89,4.28-5.79,6.48-8.64,1.6-2.07,3.33-4,4.95-6.09a12.44,12.44,0,0,1,8-4.88A29.65,29.65,0,0,1,655,386a4.94,4.94,0,0,0,.66,1.32c2.91,3.14,3.09,6.95,2,10.81-1.09,4-2.6,7.9-3.93,11.85a5.46,5.46,0,0,0-1.69.84c-3.18,3.33-6.6,6.47-9.39,10.15-5.58,7.36-10.81,15-16.17,22.58-3.73,5.26-7.59,10.39-11.68,15.36-3.52,4.27-7.49,4.52-12,4.06a11.88,11.88,0,0,1-1.38-.39c-3.24-.8-6.48-1.62-9.73-2.37-.92-.21-1.93-.33-2.46.86.9,4.91,1,5.13,3.54,9.2a24,24,0,0,0,1,3.32q3.3,7.22,6.76,14.36a22,22,0,0,0,1.89,2.82l0-.06c.31.51.62,1,.94,1.54a45.07,45.07,0,0,0,12.31,16.53,31.16,31.16,0,0,1,7.81,9.43,9.88,9.88,0,0,1-4.57,8.81c-2.49,1.73-5.15,3.2-7.73,4.79l-14.64,4.67c-1-1.11-2-2.16-2.87-3.35-1.76-2.41-3.45-4.88-5.15-7.34a31.27,31.27,0,0,0-14.85-11.53c-1.64-.64-3.26-1.36-4.88-2-2.68-4.22-6.37-7.39-9.9-10.72a7.64,7.64,0,0,0-7-2.28c-.62.12-1.25.13-1.88.19-.61-3.16-2.81-5.21-4.48-7.69-4.08-6-9.3-10.76-14.82-15.06a137,137,0,0,0-31-18.1q-15.49-6.54-29.81,2.59c-1,.66-2.32,1.74-2.54,2.84-.77,3.79-2.4,7.41-2.29,11.4-2.46,6.19-3.79,12.71-5,19.27a34,34,0,0,0-2.4,9,8.27,8.27,0,0,0,1.72.24q9.43-1.08,18.85-2.24c.43-.06.82-.46,1.22-.7,3.66,0,7.32,0,11-.09,2.05-.07,4.08-.47,6.12-.7a27,27,0,0,1,2.84-.23c11.77,0,23.54,0,35.31-.09a7.6,7.6,0,0,1,4.51,1.3c-.09,3-.19,5.93-.29,8.89a218.31,218.31,0,0,0-24.7,2.91c-1.7.33-3.4.74-5.09,1.1A220.28,220.28,0,0,0,466.61,521c-12.43,3.17-24.68,7-36.8,11.29-1.77.63-3.48,1.78-5.54,1.34a6.27,6.27,0,0,1-2.22-4.34,60.69,60.69,0,0,1-.91-7.59,425.42,425.42,0,0,1,1.35-48.43c.41-5.41.75-10.83,1.12-16.25.69-5.56,1.31-11.13,2.1-16.66,1-6.72,1.94-13.44,3.15-20.11a31.11,31.11,0,0,1,9-17,49.29,49.29,0,0,1,10.1-7.7,85.94,85.94,0,0,1,25.73-9.36A42.69,42.69,0,0,0,490,391.06c6.24.45,11.58-1.19,15.14-7.14.43-.71.87-1.41,1.3-2.11l9.43-.8c4.61.12,9.22.16,13.82.39,10.5.54,19.94,3.88,27.72,11.78,5.06,5.14,10.27,10.12,15.42,15.16q5.61,5.49,11.23,11l0-.08,1,1.11c3.58,4.6,8,8.2,12.34,11.92A8.52,8.52,0,0,0,599,433.3c1.77.94,2.88.78,4.34-.64a11.44,11.44,0,0,0,1.61-1.87Q614.2,416.87,623.37,402.93Z"/><path class="cls-2" d="M789.55,517.43a79.18,79.18,0,0,1,14.86,16.42c7,9.88,13.69,20,20,30.42,3.86,6.43,7.53,13,11.3,19.46a9.14,9.14,0,0,0,.94,1.12,12.67,12.67,0,0,0,.62,1.89c2.19,4.12,4.46,8.19,6.61,12.33,2.62,5,5.2,10.08,7.69,15.18q4.26,8.78,8.31,17.68c3.18,7,6.25,14.05,9.37,21.08l1,1.35,0-.08c-.49,1.44.23,2.63.66,3.9,2.23,6.55,4.51,13.09,6.61,19.69a173.06,173.06,0,0,1,7.79,36.2c1.61,16.85-1.14,32.89-9.11,47.7-8.57,15.9-20.89,27.77-35.56,37.08-15.43,9.79-32.26,15.43-49.83,18.81-4.23.81-8.52,1.31-12.79,2-1.12.1-2.23.26-3.34.26q-23,0-46,0c-.8,0-1.59-.13-2.38-.2A10.28,10.28,0,0,1,729,819c4.94.16,9.71-1,14.54-1.86,5-.86,9.82-2.55,14.67-4,4.24-1.29,8.46-2.72,12.22-5.31,7,2.64,14.12,4.27,21.54,3.89,3.49-.19,7-.64,9.85-3.27,1.22-1.14,1.28-2.53-.09-3.35-2.63-1.59-5.38-2.93-8-4.43a10,10,0,0,0-5.07-1.28c0-.57,0-1.13-.07-1.7L793,794c4.35-3.53,8.62-7.17,12-11.89,4.14-.19,8.28-.1,12.22,1.41a102.41,102.41,0,0,0,19.28,5.24c5.07.89,9.76,0,14.44-1.72a3.76,3.76,0,0,0,2.73-3.15c-.72-2-2.38-2.7-3.94-3.5-3.26-1.69-6.38-3.88-10.24-3.68-.2-.45-.28-1.17-.59-1.31-7.32-3.29-12.35-9.35-17-15.83a6.44,6.44,0,0,1-.59-1.89c.63-1.9,1.3-3.8,1.9-5.72a111.37,111.37,0,0,0,4.23-19.23,103.32,103.32,0,0,0,.36-17.75c-.2-4.37-1.17-8.68-1.63-13A80.92,80.92,0,0,0,823.75,688a29.21,29.21,0,0,1-.6-4,7,7,0,0,0,0-1.52,52.81,52.81,0,0,1-1.86-15.58,6.66,6.66,0,0,0-.22-2.53c-.87-2.3-.66-4.68-.72-7.06,0-1.36,0-2.73-.2-4.07-.53-4.36-1.19-8.69-1.68-13-.45-4-.6-8.11-1.15-12.13-.76-5.51-1.73-11-2.68-16.48-1.29-7.49-2.47-15-4.05-22.42a78.73,78.73,0,0,0-6.95-20.55c-1.32-2.5-2.39-5.36-4.79-6.89-4.66-3-9.6-5.48-15-6.45a10,10,0,0,1-4.67-2.25,141.23,141.23,0,0,0-12.08-24.2,13.5,13.5,0,0,0-1.58-1.9,31.77,31.77,0,0,0-15.57-9.43,54.08,54.08,0,0,0-16.49-2.28c-4.61.16-9.25-.11-13.86.13-3.95.2-7.88.85-11.81,1.34-.26,0-.5.39-.74.6L696.47,517a5.43,5.43,0,0,1,1.3-.6q12.48-2.26,25-4.48l11.4-.91c3.49-.29,7-.61,10.47-.91,4,0,7.91.09,11.86.05A83.32,83.32,0,0,1,778,513a11.63,11.63,0,0,0,1.88.19Z"/><path class="cls-11" d="M696.47,517l10.53.31c5.59,1.33,11.34,1.15,17,1.9a154.22,154.22,0,0,1,18.2,3.64,20.21,20.21,0,0,1,12,8.65,81.49,81.49,0,0,1,8.48,15.86c.77,2,1.85,3.9,2.78,5.84.34,1.29.6,2.62,1,3.88,1.63,4.59,3.46,9.11,5,13.75,5.66,17.29,11.09,34.66,15.55,52.35,3,11.94,6.37,23.78,9.26,35.75,4.86,20.17,9.5,40.39,14.14,60.61,1.47,6.38,2.63,12.84,3.91,19.19l-2.75,2.46a12.9,12.9,0,0,0-2.86.2,14.78,14.78,0,0,1-7.53.09c-2.94-.68-6-1-9-1.41a8,8,0,0,1-4-3.42c-1.28-2.33-3-4.38-4.41-6.65q-14.65-23.55-29.22-47.16c-2.62-4.26-4.91-8.73-7.35-13.11a16.62,16.62,0,0,1-2.87-8,13.39,13.39,0,0,0-.51-2.47c-2.67-11-5.25-22-8-33-2.5-9.81-5-19.63-7.93-29.32a261.37,261.37,0,0,0-8.9-25.82,94.36,94.36,0,0,0-7.36-14.24,16.5,16.5,0,0,0-6.07-5.64,65.93,65.93,0,0,0-16.12-6.36q-10.66-2.65-21.41-5c-3.88-.86-7.81-1.52-11.74-2.11-3.46-.51-7-.63-10.42-1.22-5-.86-10-1.85-15.12-1.91a17.35,17.35,0,0,1-1.9-.26c-1.73-.25-3.45-.53-5.18-.73-4-.44-7.9-.84-11.85-1.29-.28,0-.52-.36-.78-.55,2.58-1.59,5.24-3.06,7.73-4.79a9.88,9.88,0,0,0,4.57-8.81c5.16-1,10.38-.86,15.59-.91s10.13-.08,15.19-.16c1.58,0,3.15-.22,4.73-.33,2.64.29,5.32,1.11,7.84-.55l8.55.05,10.65.12C689.41,517.63,693,517,696.47,517Z"/><path class="cls-8" d="M202.88,601.16l5,5.37c1.46,1.56,2.94,3.09,4.38,4.67,6.19,6.75,7.95,14.7,5.67,23.76-.24,1-.44,2-.66,2.94A52.64,52.64,0,0,1,205.73,653a19.56,19.56,0,0,0-1.82,2.28l-5.28,2.48a14.27,14.27,0,0,1-.78-1.29c-4-8.74-10.15-15.53-17.4-21.32a184.27,184.27,0,0,0-22.28-14.84c-11.78-6.86-24.12-12.47-36.54-17.88-.5-.22-1.24-.46-1.44.84a24,24,0,0,0,6.2,3.47c9.24,3.89,17.84,9.15,26.42,14.37a169.12,169.12,0,0,1,23.62,17.29,63.77,63.77,0,0,1,13.7,16.17c2.19,3.82,3.68,7.91,3.34,12.55-.14,1.87-.05,3.75-.06,5.62-.57.26-1.36.35-1.67.81-3.56,5.37-8.93,7.6-14.49,9.29a42.51,42.51,0,0,1-13.19,2.24,25.06,25.06,0,0,0-3.32.4,17.2,17.2,0,0,1-3.33.35c-7.15-.48-14.34-.78-21.27-3-5.67-1.83-6.47-5.13-2.17-9.44a76.75,76.75,0,0,1,7.34-6.54c4.39-3.39,9.57-4.53,14.81-5.34,4.73-.73,9.48-1.35,14.21-2.07,1.58-.24,3.25-.55,3.84-2.49.38-1.26-.89-2.54-3.78-3.06-6-1.09-12.1-1.46-17.79,1.72a64.07,64.07,0,0,0-6.2,3.86,46.81,46.81,0,0,1-17.61,7.73,14.85,14.85,0,0,1-11.15-1.49,33.88,33.88,0,0,1-9.93-8.63,90,90,0,0,1-11-18.52c-.39-.9-.69-1.84-1-2.56.53-1.35,1.42-1.11,2.16-1.11q3.6,0,7.2.09c7,.17,13.55-2,20-4.68,1.76-.72,3.53-1.66,3.88-4.12-1.7-1.94-4-2.07-6.13-2.51-5.36-1.1-10.8-.95-16.23-1.17-4-.16-8-.61-11.92-.94A7.81,7.81,0,0,1,90,619.28a18.4,18.4,0,0,1-5-7.39,34.47,34.47,0,0,1-1.42-18c.41-2.17.76-4.35,1.36-6.46a17.82,17.82,0,0,1,9.81-11.86,31.45,31.45,0,0,1,10.57-3.11c3.33-.29,6.63-1.12,10-.74,2.85.33,5.68.82,8.75,1.27,3,4.59,6.14,9.33,9.3,14,4.95,7.31,9.85,14.68,16,21,1.38,1.41,2.72,2.87,5,3.08a4.11,4.11,0,0,0,.36-4.19c-1.29-3.66-2.52-7.37-4.15-10.86-2.78-5.94-5.85-11.73-8.8-17.57-.3-.6-.65-1.17-.91-1.78a1.27,1.27,0,0,1,1.19-1.73c2.21.31,4.44.53,6.61,1.05,3,.7,5.89,1.54,8.78,2.5A247.86,247.86,0,0,1,182.88,589c.87.4,1.67,1,2.66,1.57.1,1.13.28,2.29.29,3.46,0,4.09.12,8.18-.07,12.26-.28,6.16.66,12.22,1.09,18.31a17.23,17.23,0,0,0,2.12,7.77c.84,1.39,2.33,1.45,3.13.11a8.94,8.94,0,0,0,1.36-4.82c-.12-5.95.35-11.88-.75-17.82-.86-4.62-1.11-9.37-1.63-14.06.67-.86,1.46-.57,2.16-.19,1.71.93,3.37,1.94,5,2.92Zm-87.49-.54c.24,1.28,1.09,1.51,2.11,1.36.13,0,.36-.61.28-.74C117.17,600.32,116.41,599.87,115.39,600.62Zm-2.34-.88c0-.13-.06-.36-.11-.36a1.38,1.38,0,0,0-.42.11c0,.12.07.35.11.35A1.29,1.29,0,0,0,113.05,599.74Z"/><path class="cls-12" d="M214.54,809.68a37.94,37.94,0,0,0-3.56-2.43c-16.16-8.56-28.25-21.56-36.54-38.5a80.12,80.12,0,0,1-8-28.17c-.21-2.36-.66-4.69-1-6.8-.67-1.33-2.89-1.27-2.22-3.1.59-1.6,2.23-.94,3.41-.95,12.16-.05,24.32,0,36.47,0,2.08,0,4.16-.05,6.24-.08h5.33l12.28.1h6.77l5.55-.14,4.92.2,8.69-.19h6.78l23,0,5.81,0h7.63c1.73.1,3.45.27,5.18.28,9.47.07,18.94.1,28.41.14h0a12.74,12.74,0,0,1-.57,1.81c-.34.69-1.12,1.26-1.19,1.94-.39,3.49-.62,7-.9,10.51l-.24,2a13.16,13.16,0,0,0-.73,1.85c-5.88,27-20.62,46.52-43.61,59.2-1.24.69-2.41,1.54-3.62,2.32l-34.55,0c-1-2.25-3.23-2.68-5-3.63a77,77,0,0,1-20-15.46,88.07,88.07,0,0,1-10.62-14.37,82.81,82.81,0,0,1-12.37-40.09,20.5,20.5,0,0,0-.68-3.12c-3.36,0-6.54-.14-9.71,0s-6.33-.66-9.44.67a34.53,34.53,0,0,0,.6,11.72,96.52,96.52,0,0,0,7.23,23.1A91.29,91.29,0,0,0,198.55,790a30.43,30.43,0,0,0,3.43,3.56c6,5,11.9,10.26,19,13.48a3.62,3.62,0,0,1,2.38,2.33Z"/><path class="cls-13" d="M338.62,530.78q-2.75-10.8-5.5-21.61c-3.9-15.21-7.86-30.4-11.72-45.63-2.73-10.8-5.31-21.65-8-32.45-2.65-10.48-5.43-20.92-8.1-31.4-1.79-7-3.51-14.09-5.26-21.14-3-12.29-6-24.61-9.15-36.87-.65-2.58-1.15-5.27-2.9-7.46-2.51-3.14-5.49-5.13-9.41-5.36a2.72,2.72,0,0,1,.87-.4c4.93-.34,9.88-1,14.8-.87a38.09,38.09,0,0,1,17.16,4,13.22,13.22,0,0,0,5.91,1.8c0,1.76,1.14,2.7,2.31,3.64s2.3,1.82,3.36,2.83c5.59,5.36,9.22,12,11.61,19.56,6.39,20.09,12.9,40.13,19.16,60.27,7.4,23.83,15.21,47.52,22.4,71.43.38,1.28.92,2.59,2.51,2.7a23.81,23.81,0,0,0,1.42,9c1.21,3.5,2.3,7.05,3.37,10.61,1,3.38,1.92,6.8,2.88,10.21-.9-.35-1.81-.68-2.7-1a58.41,58.41,0,0,0-22.49-4.15c-3.82.06-7.62.8-11.44.82-2.77,0-4.4,1.24-5.79,3.64C342.32,525.66,340.39,528.17,338.62,530.78Z"/><path class="cls-14" d="M869.21,653c-3.12-7-6.19-14.09-9.37-21.08q-4.05-8.89-8.31-17.68c-2.49-5.1-5.07-10.15-7.69-15.18-2.15-4.14-4.42-8.21-6.61-12.33a12.67,12.67,0,0,1-.62-1.89,14.55,14.55,0,0,1,2.88,0c9,1.89,18.15.75,27.22.78,4.08,0,8.15-1.33,12.25-1.65a68.5,68.5,0,0,0,12.66-2.4A54.61,54.61,0,0,0,901,578a19.37,19.37,0,0,0,4.47-3.73c1.35-1.29,1.42-2.95.77-4.69-.52-1.41-1-2.84-1.51-4.26L925,550.07l2.86-.09c11.1,2.4,21.46,6.56,30.41,14.19a26.74,26.74,0,0,1,9.47,17.16,13.64,13.64,0,0,1,.19,3c-.79,8.67-2.18,17.15-6.37,24.87a36.41,36.41,0,0,1-7.36,9.33c-4.3,4-9.23,5.24-14.73,3.49-7.34-2.34-14.66-4.75-22-7.06-3.68-1.15-7.38-2.23-11.11-3.14-2.93-.71-5.93-1.25-8.82-.24a3,3,0,0,0,.33,3.48,43,43,0,0,0,4.77,5.69c7.58,7,16,12.4,25.66,15.48,2.13.68,4.31,1.18,6.43,1.75,0,.43.2.86.07,1-8.3,9.62-17.74,17.65-28.85,23.28a28.42,28.42,0,0,1-14.36,3.42,18.78,18.78,0,0,1-8.71-2.41,57.54,57.54,0,0,1-11.1-8,12,12,0,0,0-1.59-1.08l0,.08Z"/><path class="cls-6" d="M378.64,493.86c-1.59-.11-2.13-1.42-2.51-2.7-7.19-23.91-15-47.6-22.4-71.43-6.26-20.14-12.77-40.18-19.16-60.27-2.39-7.52-6-14.2-11.61-19.56-1.06-1-2.22-1.91-3.36-2.83s-2.3-1.88-2.31-3.64q22.93-.65,45.87-1.28c15.93-.4,31.86-.73,47.79-1.14,4.93-.13,9.87-.43,14.8-.66a60.31,60.31,0,0,1,.87,6.5,63.34,63.34,0,0,0,1.86,12c.51,2.29.84,4.64,1.24,7-5.38,4.09-9.42,9.57-13.37,15.07a164.44,164.44,0,0,0-11,17.82,186.07,186.07,0,0,0-13.46,31.93c-1.84,5.77-3.62,11.56-5.16,17.42-1.28,4.87-2.34,9.83-3.18,14.81-.9,5.3-1.28,10.7-2.15,16A104.69,104.69,0,0,0,379.67,489,8.74,8.74,0,0,1,378.64,493.86Z"/><path class="cls-15" d="M429.72,355.78c-.4-2.32-.73-4.67-1.24-7a63.34,63.34,0,0,1-1.86-12,60.31,60.31,0,0,0-.87-6.5c.11-6.12-.24-12.26.91-18.34a52,52,0,0,1,3-10.74c4.21-10,11.6-15.06,21.71-15.9a10.73,10.73,0,0,1,2.4-.05,7.13,7.13,0,0,0,6.14-2.17c1.17-1.08,2.42-2.27,4.26-1.19.43.25,1.22-.2,1.84-.33,1.89-.38,3.76-.89,5.66-1.12,5.33-.63,10.29.44,14.1,4.74a32,32,0,0,0,11.94,9c4.19,1.71,6.74,5.62,8.54,9.95a41.64,41.64,0,0,1,3,13.87c.12,2.38,0,4.77,0,7.15-2.32.41-3.57-1.18-4.56-3-1.85-3.36-3.6-6.79-5.37-10.21-2.8-5.43-7.08-9-12.7-11.46a26.76,26.76,0,0,0-1.2,4,84.45,84.45,0,0,1-4.58,18.1c-3,8.12-7.81,14.27-15.43,17.78-1.43.65-2.76,1.55-4,2.25.31,5.17,2.31,11.27,5,14.92A14.5,14.5,0,0,1,469,363c.63,2.62,1.49,5.19,2.14,7.81,1.26,5.06,2.77,10.09,2.59,15.43A85.94,85.94,0,0,0,448,395.57a49.29,49.29,0,0,0-10.1,7.7,31.11,31.11,0,0,0-9,17c-1.21,6.67-2.19,13.39-3.15,20.11-.79,5.53-1.41,11.1-2.1,16.66a36,36,0,0,1-2.57-3c-3.28-4.75-4.84-10.23-6.17-15.87a31.29,31.29,0,0,1-.42-11.63c1.15-8.27,5-15.36,10-21.67a78.65,78.65,0,0,0,5.47-7.69,38.76,38.76,0,0,0,5.51-19.15,33.84,33.84,0,0,0-1.12-9C433.21,364.48,432.31,359.78,429.72,355.78Z"/><path class="cls-16" d="M1041.47,782c-1.56-1.4-1.55-3.15-1.15-5.1,1.38-6.62,2.68-13.27,4-19.9q8.34-41.31,16.65-82.61a34.29,34.29,0,0,0,.34-3.53,16.79,16.79,0,0,0,.82-2.35q5.3-26.14,10.51-52.3c.88-4.47,1.5-9,2.24-13.5a16.09,16.09,0,0,0,.87-2.31q2.37-11.41,4.68-22.87c1.51-7.46,3.09-14.91,4.49-22.39a7.35,7.35,0,0,1,3.33-5.3,66.67,66.67,0,0,1,7.18-4c7.51-3.43,15.48-5.21,23.41-7.09l12.54-2.94,5.18-.74c6.44-.91,12.87-1.85,19.32-2.74,4.71-.65,9.44-1.21,14.15-1.85,1.88-.26,3.75-.64,5.62-1a140.6,140.6,0,0,0,19.94-2.09c3.22.41,6.57-.34,9.69,1.12-.79,1.1-1.93,1-3,1-1.92,0-3.84,0-5.74.24-4.25.52-8.47,1.24-12.72,1.79-3.63.46-7.29.64-10.89,1.22-5.18.81-10.29,2-15.47,2.79-7.25,1-14.4,2.56-21.53,4.23-6.68,1.56-13.36,3.17-19.62,6.19a77.26,77.26,0,0,0-7.94,4.65,4.75,4.75,0,0,0-2,3.34c-.88,5-1.93,9.92-2.83,14.9-1.12,6.14-2.1,12.3-3.23,18.44-1.45,8-3,15.9-4.48,23.86-1.09,6-2.06,12-3.15,17.93-1.8,10-3.65,19.9-5.48,29.84-1.19,6.47-2.39,12.93-3.56,19.4-.76,4.14-1.48,8.3-2.21,12.45-1.35,7.64-2.65,15.29-4,22.92q-2.75,15.18-5.59,30.34c-1.42,7.62-3,15.21-4.33,22.86-1,5.81-2.69,11.52-2.49,17.53a7.21,7.21,0,0,0-5.5.7c-1.59,0-3.17,0-4.75.14a21.38,21.38,0,0,1-10.65-2.15C1043.22,782.79,1042.34,782.42,1041.47,782Z"/><path class="cls-17" d="M1205.3,528.55c-3.12-1.46-6.47-.71-9.69-1.12-.25-.2-.49-.54-.75-.57-4.19-.47-8.37-1-12.57-1.31-2.19-.18-4.39-.08-6.59-.1a15.38,15.38,0,0,0-2.72-.82c-7.41-.81-14.83-1.68-22.26-2.26a4.84,4.84,0,0,1-4.86-3.84c-2.29-7.19-4.75-14.32-7.15-21.48,1.07-1.25,2.19-2.44,3.18-3.75a20,20,0,0,0,2.41-3.71c1.12-2.51.34-4-2.09-5.08-2.75-1.25-5.63-.65-8.44-1q-7.86-22.86-15.71-45.72c-.47-1.37-1.45-2.69-.76-4.56,2.73-1.21,5.48.25,8.25.36-1.27,5.91-1.52,11.73.86,17.48,3.27,7.92,6.38,15.92,9.73,24.29,1.22.06,2.79.18,4.36.2,6.71.07,13.43.06,20.14.19,5.59.11,11.17.39,16.76.53a19,19,0,0,0,3.06-.46,23.68,23.68,0,0,0-.48-4.13,43.39,43.39,0,0,0-2.21-5.64c-1.76-3.82-3.57-7.62-5.45-11.37a26.76,26.76,0,0,1-2.59-17.24l1,.2c1.11,1.41,2.64.9,4,1,2.7.16,5.4.23,8.09.42,1.74.13,3.46.41,5.19.63l0,0c0,1.14-.18,2.36,1,3.1l0,0a14.42,14.42,0,0,0,2.88,9.36c0,.24,0,.49,0,.74a9.5,9.5,0,0,0,1.93,6.31l0-.05c0,1.14-.18,2.36.94,3.12h0c.09,1.48-.35,3.13,1.11,4.21q2.82,9.73,5.62,19.48c1.25,7,3.58,13.71,5.53,20.51a26.06,26.06,0,0,0,1.13,2.75c.21.24.53.44.61.73,1.76,6.2,3.49,12.42,5.23,18.63Z"/><path class="cls-2" d="M623.37,402.93q-9.18,13.94-18.38,27.86a11.44,11.44,0,0,1-1.61,1.87c-1.46,1.42-2.57,1.58-4.34.64a8.52,8.52,0,0,1-1.62-1.06c-4.33-3.72-8.76-7.32-12.34-11.92l-1-1.11,0,.08a38.38,38.38,0,0,0-.58-5.51c-2.87-11.46-5.91-22.86-8.77-34.32-3.34-13.41-6.57-26.86-9.8-40.31a10.41,10.41,0,0,0-2.79-5.24c-1.29-1.26-2.65-2.44-3.92-3.72a8.6,8.6,0,0,1-1-1.63c6.18-.78,12.4-1.32,18.57-.25a39.14,39.14,0,0,1,19.46,9.24A46.44,46.44,0,0,1,609.2,359.1c4.07,13.07,8.24,26.1,12.4,39.14C622.11,399.83,622.77,401.36,623.37,402.93Z"/><path class="cls-6" d="M557.23,328.56a8.6,8.6,0,0,0,1,1.63c1.27,1.28,2.63,2.46,3.92,3.72a10.41,10.41,0,0,1,2.79,5.24c3.23,13.45,6.46,26.9,9.8,40.31,2.86,11.46,5.9,22.86,8.77,34.32a38.38,38.38,0,0,1,.58,5.51q-5.61-5.48-11.23-11c-5.15-5-10.36-10-15.42-15.16-7.78-7.9-17.22-11.24-27.72-11.78-4.6-.23-9.21-.27-13.82-.39.64-3,1.69-5.92,1.85-8.92.41-7.63.29-15.25-1.41-22.78-1.53-6.77-3.32-13.45-5.24-20.09a5.91,5.91,0,0,1,.94-.13q22.11-.33,44.23-.64A6.15,6.15,0,0,1,557.23,328.56Z"/><path class="cls-18" d="M473.73,386.21c.18-5.34-1.33-10.37-2.59-15.43-.65-2.62-1.51-5.19-2.14-7.81a14.5,14.5,0,0,0-2.56-5.37c-2.73-3.65-4.73-9.75-5-14.92,1.23-.7,2.56-1.6,4-2.25,7.62-3.51,12.44-9.66,15.43-17.78a84.45,84.45,0,0,0,4.58-18.1,26.76,26.76,0,0,1,1.2-4c5.62,2.5,9.9,6,12.7,11.46,1.77,3.42,3.52,6.85,5.37,10.21,1,1.79,2.24,3.38,4.56,3,.34,1.15.67,2.29,1,3.43.21,3,.53,6.07.62,9.11.15,5.43.25,10.86.19,16.28a14.87,14.87,0,0,1-1.07,4.42c-.85,2.56-2.34,4.38-5.1,4.7a21.32,21.32,0,0,0-3.23.9c-2.34.39-4.71.66-7,1.21a29,29,0,0,1-14.13,0c-1.17-.3-2.46-.55-3.6.61.24.57.31,1.16.63,1.4a54.06,54.06,0,0,0,6.71,4.79,22.9,22.9,0,0,0,10,3.16c3.17.1,6.36-.11,9.54-.18l2.73,6.8c-.43.7-.87,1.4-1.3,2.11-3.56,5.95-8.9,7.59-15.14,7.14A42.69,42.69,0,0,1,473.73,386.21Z"/><path class="cls-2" d="M658.91,516.85c-1.58.11-3.15.3-4.73.33-5.06.08-10.12.1-15.19.16s-10.43-.05-15.59.91a31.16,31.16,0,0,0-7.81-9.43,45.07,45.07,0,0,1-12.31-16.53c-.32-.51-.63-1-.94-1.54l0,.06a19.38,19.38,0,0,0-.93-6.84c-1.06-4-1.88-8-2.8-12l5.15.95c2.82.5,5.62,1.15,8.45,1.45,5.84.63,6.65.35,10.23-4.44,2.66-3.56,5-7.37,7.43-11.16s4.63-7.66,6.93-11.5c.63,1.24,1.26,2.48,1.9,3.72.25,1.14.41,2.32.77,3.42,1.7,5.24,3.45,10.46,5.19,15.68,0,.93,0,1.82,1,2.28l0-.07c.42,2,.71,4,1.29,5.9Q652.87,497.54,658.91,516.85Z"/><path class="cls-19" d="M1169.73,437.4a26.76,26.76,0,0,0,2.59,17.24c1.88,3.75,3.69,7.55,5.45,11.37a43.39,43.39,0,0,1,2.21,5.64,23.68,23.68,0,0,1,.48,4.13,19,19,0,0,1-3.06.46c-5.59-.14-11.17-.42-16.76-.53-6.71-.13-13.43-.12-20.14-.19-1.57,0-3.14-.14-4.36-.2-3.35-8.37-6.46-16.37-9.73-24.29-2.38-5.75-2.13-11.57-.86-17.48a19.57,19.57,0,0,1,3-7.35,3.42,3.42,0,0,1,3.14-1.88c4.41.23,8.87-.66,13.24.79a12.55,12.55,0,0,0,3.79.2c5.08,0,10.16,0,15.25,0a22,22,0,0,1,6.58.69c1.61.5,3.46.11,5.2.12l.07,0A30,30,0,0,0,1169.73,437.4Z"/><path class="cls-2" d="M1074.9,602.74c-.74,4.5-1.36,9-2.24,13.5q-5.17,26.18-10.51,52.3a16.79,16.79,0,0,1-.82,2.35c-2.24-1.41-3.06-3.83-3.86-6.23a54.6,54.6,0,0,1-2.65-17c-.11-28,0-56.06-.06-84.09a22,22,0,0,1,8.15-17.6,25.89,25.89,0,0,1,3.56-2.57,55.73,55.73,0,0,1,28.44-7.46c-.44.65-.75,1.51-1.34,1.91-1.34.9-2.83,1.54-4.23,2.35a28.57,28.57,0,0,0-10,9.14,29.37,29.37,0,0,0-4.54,15.74c-.14,5.43,0,10.86,0,16.29C1074.77,588.49,1074.84,595.62,1074.9,602.74Z"/><path class="cls-3" d="M244.31,809.69l34.55,0c7.42,0,14.84.07,22.26.06,3.78,0,7.56-.15,11.35-.22a27.06,27.06,0,0,0,3.7.19,15.73,15.73,0,0,1,9.39,2.16c1.63,2.37,3.42,4.65,3.41,7.83-1.76.06-3.51.17-5.27.17H169.31c-1.6,0-3.19-.09-4.79-.13a22.17,22.17,0,0,1,1.13-3.87c1.82-3.72,4.67-6,8.72-6.11,2.39-.08,4.78,0,7.17,0l33,0,8.86-.28Z"/><path class="cls-8" d="M644.69,470.06c-1.74-5.22-3.49-10.44-5.19-15.68-.36-1.1-.52-2.28-.77-3.42,3.45,1.28,7,2.39,10.33,3.87,7.51,3.31,14.92,6.9,22.45,10.16,2.12.92,3,2.08,2.93,4.51-.16,3.57-.11,7.14-.12,10.71,0,5.28,0,10.55,0,15.82,0,6.79-.1,13.58,1,20.32l-8.55-.05a7.81,7.81,0,0,0-.37-1.46q-9.45-20.16-19-40.31a13.17,13.17,0,0,0-1.79-2.26l0,.07Z"/><path class="cls-20" d="M1086.31,819.81l-9.22-.33-.58-3.35c-4.22-.46-8,.52-11.81,1.43-1.82.44-3.7.73-5.15,2.17-2.07,0-4.14.15-6.2.15q-25.1,0-50.17,0c-1.53,0-3.19.58-4.59-.65a7.42,7.42,0,0,1-4.2-5.43c.49-.54.93-1.33,1.57-1.67a44.78,44.78,0,0,1,13.45-4.91,46.2,46.2,0,0,0,6.81,2.06c5.34.8,10.68,1.35,15.93-.9,1.55-.67,3.38-.58,5.09-.83a29.3,29.3,0,0,0,9.72,2.29,51.83,51.83,0,0,0,23.92-3.53c6.14-2.35,12.3-4.65,18.44-7,1.66,1.44,1.48,3.6,2,5.52a9.15,9.15,0,0,1-2,8.85A10.5,10.5,0,0,0,1086.31,819.81Z"/><path class="cls-8" d="M696.47,517c-3.52,0-7.06.65-10.52-.51.23-8-.69-15.84-1.64-23.74-.62-5.2-1.3-10.37-2.13-15.54a21.16,21.16,0,0,1,.17-3.83,25,25,0,0,1,3.37,1A70.89,70.89,0,0,1,702,484.89a122.82,122.82,0,0,1,12.9,12.81,56.88,56.88,0,0,1,4.83,6.28,17.46,17.46,0,0,1,3,7.92q-12.47,2.24-25,4.48A5.43,5.43,0,0,0,696.47,517Z"/><path class="cls-3" d="M636.83,447.24c-2.3,3.84-4.54,7.72-6.93,11.5s-4.77,7.6-7.43,11.16c-3.58,4.79-4.39,5.07-10.23,4.44-2.83-.3-5.63-.95-8.45-1.45l-5.15-.95-5.9-1.63c-2.56-4.07-2.64-4.29-3.54-9.2.53-1.19,1.54-1.07,2.46-.86,3.25.75,6.49,1.57,9.73,2.37a11.88,11.88,0,0,0,1.38.39c4.54.46,8.51.21,12-4.06,4.09-5,8-10.1,11.68-15.36,5.36-7.56,10.59-15.22,16.17-22.58,2.79-3.68,6.21-6.82,9.39-10.15a5.46,5.46,0,0,1,1.69-.84c-1.33,3.41-2.49,6.92-4,10.22-3.51,7.54-7.21,15-10.82,22.47C638.17,444.2,637.51,445.73,636.83,447.24Z"/><path class="cls-14" d="M214.71,729.61h-5.33c0-5.24.17-10.48,0-15.72a50.89,50.89,0,0,0-.92-8.06,47.46,47.46,0,0,0-4.27-13.42c-1.62-3.11-2.83-6.47-4.52-9.53-1.93-3.49-4.18-6.77-6.3-10.15,0-1.87-.08-3.75.06-5.62.34-4.64-1.15-8.73-3.34-12.55a63.77,63.77,0,0,0-13.7-16.17,169.12,169.12,0,0,0-23.62-17.29c-8.58-5.22-17.18-10.48-26.42-14.37a24,24,0,0,1-6.2-3.47c.2-1.3.94-1.06,1.44-.84,12.42,5.41,24.76,11,36.54,17.88a184.27,184.27,0,0,1,22.28,14.84c7.25,5.79,13.36,12.58,17.4,21.32a14.27,14.27,0,0,0,.78,1.29,30.13,30.13,0,0,0-.2,5c1.12,9.05,3.1,17.85,7.26,25.94a8.25,8.25,0,0,0,1.23,1.42l-.07-.09c.17.54.34,1.08.5,1.62l5.2,12.79a12.24,12.24,0,0,0,.18,2,66,66,0,0,1,1.92,20.1C214.61,727.58,214.69,728.6,214.71,729.61Z"/><path class="cls-2" d="M1037.24,807.51c-1.71.25-3.54.16-5.09.83-5.25,2.25-10.59,1.7-15.93.9a46.2,46.2,0,0,1-6.81-2.06,26.56,26.56,0,0,1,3.55-1.38,30.68,30.68,0,0,0,12.72-6.57c3.94-3.36,7.81-6.87,11.43-10.62,1.78-1.84,2.92-4.37,4.36-6.58.87.39,1.75.76,2.61,1.17a21.38,21.38,0,0,0,10.65,2.15c1.58-.1,3.16-.1,4.75-.14l.81,6.14a4.34,4.34,0,0,1-1.88,3.34,30.15,30.15,0,0,0-2.69,2c-4.08,4.17-9,6.67-14.27,8.67A44.71,44.71,0,0,0,1037.24,807.51Z"/><path class="cls-6" d="M1074.9,602.74c-.06-7.12-.13-14.25-.17-21.37,0-5.43-.11-10.86,0-16.29a29.37,29.37,0,0,1,4.54-15.74,28.57,28.57,0,0,1,10-9.14c1.4-.81,2.89-1.45,4.23-2.35.59-.4.9-1.26,1.34-1.91a187,187,0,0,1,33.62-.89l2.87.77-12.54,2.94c-7.93,1.88-15.9,3.66-23.41,7.09a66.67,66.67,0,0,0-7.18,4,7.35,7.35,0,0,0-3.33,5.3c-1.4,7.48-3,14.93-4.49,22.39q-2.33,11.45-4.68,22.87A16.09,16.09,0,0,1,1074.9,602.74Z"/><path class="cls-18" d="M655,386a29.65,29.65,0,0,0-12.15-2.72,34.12,34.12,0,0,1,5.26-10.76,6.2,6.2,0,0,1,6.61-2.87c4.24.6,8.58.41,12.87.58a8.59,8.59,0,0,0,4.91-1.74c1.65-1,3.28-2.11,5-3,2.16-1.07,3.94.39,3.48,2.87a19.91,19.91,0,0,1-3.8,8.12c-3.33,4.58-7.85,6.13-13.13,5.5a22.13,22.13,0,0,0-4.24-.48,6.24,6.24,0,0,0-3.49,1.34C655.54,383.56,655.38,385,655,386Z"/><path class="cls-15" d="M501.65,364.06a21.32,21.32,0,0,1,3.23-.9c2.76-.32,4.25-2.14,5.1-4.7a14.87,14.87,0,0,0,1.07-4.42c.06-5.42,0-10.85-.19-16.28-.09-3-.41-6.07-.62-9.11l.87.57c1.92,6.64,3.71,13.32,5.24,20.09,1.7,7.53,1.82,15.15,1.41,22.78-.16,3-1.21,6-1.85,8.92l-9.43.8q-1.37-3.4-2.74-6.8c-.46-2.06-1-4.11-1.37-6.18C502.06,367.26,501.88,365.65,501.65,364.06Z"/><path class="cls-18" d="M1133.77,483.47c2.81.39,5.69-.21,8.44,1,2.43,1.1,3.21,2.57,2.09,5.08a20,20,0,0,1-2.41,3.71c-1,1.31-2.11,2.5-3.18,3.75a19.7,19.7,0,0,1-5.08-5.25C1131.83,488.91,1131.57,486.21,1133.77,483.47Z"/><path class="cls-6" d="M1175.7,525.45c2.2,0,4.4-.08,6.59.1,4.2.34,8.38.84,12.57,1.31.26,0,.5.37.75.57a140.6,140.6,0,0,1-19.94,2.09Z"/><path class="cls-2" d="M1131.4,535.82l-2.87-.77,8.06,0Z"/><path class="cls-21" d="M1320.42,535.71l30.76,0c6.19,0,12.38.08,18.57,0,4.63-.09,8.79.95,12.21,4.49.41.42,1.16.48,1.74.7.61,3.84,2.39,7.39,2.37,11.39,0,2.2.38,4.4.39,6.6q.06,20.11,0,40.25c-1.75.07-3.5.2-5.25.2q-14.81,0-29.63,0a31,31,0,0,0-3.34,0c-4.91.51-8.13,4.07-8.43,9.34a24,24,0,0,0,.06,4.07c.47,4.15,3.94,8.1,8,8.06,1.27,0,2.55,0,3.82,0,9.88,0,19.75,0,29.63,0,1.73,0,3.46.35,5.19.53,0,6,.1,11.92,0,17.88-.1,5.27-.32,10.54-.72,15.79a35.91,35.91,0,0,1-3.32,12.71c-1.33,2.84-3.28,4.53-6.45,4.21-1.11-.11-2.23,0-3.35,0q-52.77,0-105.53.05c-2.06,0-4.17-.38-6.14.64h-7.69c-.68-.32-1.35-.92-2-.93-2.33,0-4.66.1-7,.17-4.09.12-8.17.35-12.26.34-3.13,0-6.27-.33-9.41-.52-.2-.46-.38-.93-.62-1.37-3.84-6.92-5.26-14.41-5.22-22.42.11-28.1,0-56.19,0-84.29,0-1-.06-2,0-3.06a19.88,19.88,0,0,1,4.69-12,32.19,32.19,0,0,1,16-9.78c3.07-.88,6.2-1.49,9.3-2.22l6.56-.46c1.75.11,3.49.33,5.24.32q23.51-.24,47-.55C1310.51,535.91,1315.46,535.8,1320.42,535.71Z"/><path class="cls-10" d="M1492.36,599.09l-11.23.17c-.06-1.87-1.62-2.37-2.68-3.33-5.4-4.91-5.87-11.19-4.74-18,3.74-.36,7.2-.81,10.67-1s7,0,10.54,0c1.12,0,2.24,0,3.36,0a2.26,2.26,0,0,1,2.35,2.06c.12.66.29,1.31.49,2.17,1.09.14,2.18.25,3.25.43a3.46,3.46,0,0,1,2.89,4.35,8.25,8.25,0,0,1-3.89,5.57c-1.53.89-3.22,1.48-4.8,2.29A14.28,14.28,0,0,0,1492.36,599.09Zm8-9.4a4.73,4.73,0,0,0,4.24-2.86c.39-.86.12-2.58-.52-2.71a3.12,3.12,0,0,0-2.2.26C1500.05,585.61,1499.67,587.43,1500.36,589.69Z"/><path class="cls-10" d="M1422,599.24l-11.25-.13c-.31-1.5-1.5-2.13-2.53-2.9a12.77,12.77,0,0,1-5.22-10.83c0-2.65-.47-5.37.52-8.19a12.42,12.42,0,0,0,6.63-.08c1.65-.46,3.48-.16,5.23-.17,3.35,0,6.69,0,10,0,1.24,0,2.48.24,3.84.38.42,1.44.78,2.68,1.18,4,1.35.13,2.61.17,3.85.39a2.79,2.79,0,0,1,2.27,2.84,6.65,6.65,0,0,1-2.69,6.15,30.67,30.67,0,0,1-5.54,2.88A11.12,11.12,0,0,0,1422,599.24Zm7.31-9.51c2.4-.37,4.17-1.08,4.55-3.67.08-.57-.16-1.57-.52-1.75a2.4,2.4,0,0,0-2.11,0C1429.53,585.52,1429,587.31,1429.26,589.73Z"/><path class="cls-22" d="M1261,672.72c2-1,4.08-.64,6.14-.64q52.77,0,105.53-.05c1.12,0,2.24-.09,3.35,0,3.17.32,5.12-1.37,6.45-4.21a35.91,35.91,0,0,0,3.32-12.71c.4-5.25.62-10.52.72-15.79.12-6,0-11.92,0-17.88,1.27-.07,2.54-.21,3.82-.21q22.28,0,44.56,0c1.41,0,2.82.15,4.5.25.18,1.15.38,2.11.47,3.07.18,1.86.38,3.72.43,5.59.47,17.17.88,34.33,1.35,51.5.32,11.73.7,23.45,1.06,35.18q.43,14.26.88,28.55.53,17.07,1,34.15c.05,1.53.32,3.05.36,4.57,0,1.15-.13,2.29-.22,3.64-3.82.55-7.44.94-11,1.6a60.87,60.87,0,0,0-26.38,11.45,40.5,40.5,0,0,0-14,18.94c-1.27,0-2.55.12-3.83.12h-75.26c-1.44,0-2.87-.12-4.31-.18-.28-1-.52-2-.85-2.91q-11.56-33.19-44-41c-1.23-.3-2.45-.68-4-1.11,0-1.7-.08-3.38-.08-5q0-14.79,0-29.57Q1261,706.37,1261,672.72Z"/><path class="cls-20" d="M1253.31,536.2l-6.56.46a20.69,20.69,0,0,0-3.68-.63c-3.63,0-7.26.18-10.89.28-.4-1.75-1.91-2.12-3.15-2.7-4.87-2.26-9.82-4.31-15.12-5.16-1.74-6.21-3.47-12.43-5.23-18.63-.08-.29-.4-.49-.61-.73l.06-24.78c0-2.89.32-5.87-.24-8.63a48.9,48.9,0,0,1-.68-9.09c0-3.23.39-6.55-.2-9.66a71.07,71.07,0,0,1-.8-11.63,8.11,8.11,0,0,0-.19-2.53c-1-2.63-.68-5.35-.75-8a15.45,15.45,0,0,0-.21-4.05c-.82-2.66-.72-5.36-.76-8.06,0-1.18.15-2.41-.77-3.35-.3-3.89-.69-7.77-.85-11.67a46,46,0,0,1,.23-7.61,71.28,71.28,0,0,1,6.9-22.14,41.73,41.73,0,0,0,3.15-10.1c1.89-9.64,4-19.22,5.87-28.87,1.46-7.72,5.67-12.73,12.49-15.43,1.35-.53,2.71-1,4.07-1.49a54.22,54.22,0,0,1,12.2-2.45c1.08,4,3.32,7,7.11,8.17a18.67,18.67,0,0,0,6.53,1.1,60.92,60.92,0,0,0,24.67-6.62c11,2.07,21.94,4.65,32.33,9.19a68.64,68.64,0,0,1,8.86,5,8.73,8.73,0,0,1,4.05,6.62c.24,2,.62,4,.8,6,1.09,11.88,1,23.8,1,35.72,0,9,0,18.05-.19,27.07-.22,10.89-.51,21.79-1,32.67-.43,9.34-1.13,18.67-1.82,28-.51,7-2,9-8.15,11.73-2.07.91-4.21,1.62-6.32,2.42-7.25,1.78-14.51,3.56-21.89,4.64-3.14.47-6.26,1.32-9.4,1.43-5.09.18-10.07,1.71-15.2,1.18a2.84,2.84,0,0,0-1.42.17c-2.13,1-4.38.76-6.6.78-4.47,0-8.94,0-13.41,0-1.09,0-2.18-.16-3.36-.25l-1.46-3.29c.07-4.37.15-8.74.18-13.12,0-.45-.38-.91-.57-1.37.5-.4,1.24-.69,1.48-1.23,1.43-3.17,4.09-4.64,6.88-6,1.17-.55,2.36-1,3.55-1.51,7.3-2.94,14.91-4.8,22.4-7.08q8-2.46,16-5.21a23.24,23.24,0,0,0,4.71-2.46,3.85,3.85,0,0,0,2-3.3c0-4.76.29-9.56-.22-14.26-.29-2.68-.62-5.35-.7-8.06a23.9,23.9,0,0,0-.18-2.54c-.56-4.34-1.21-8.67-1.68-13-.45-4.2-.66-8.42-1.09-12.62-.14-1.46-.37-3.06-2.09-3.59a131.55,131.55,0,0,0-20.93,16.86,162.49,162.49,0,0,0-16.28,17.91,111.49,111.49,0,0,0-13.24,21.69,32,32,0,0,1-2.33,3.75c-.42.22-1,.32-1.24.68q-6.43,9.74-12.8,19.51c-2.82,1.12-5.69,2.11-8.44,3.39a22.83,22.83,0,0,0-4.86,3.09c-1.73,1.41-1.59,3.2.24,4.57,1.15.86,2.43,1.53,3.66,2.29-1.25,1.94-2.51,3.86-3.73,5.82-.87,1.41-1.68,2.86-.88,4.71a3.44,3.44,0,0,0,3.51-1.9q2.37-3.74,4.73-7.49a8.09,8.09,0,0,1,1.85.09,17.67,17.67,0,0,0,10.11-.17,14.85,14.85,0,0,1,3.22-.34,89.3,89.3,0,0,0,7.84,27C1246.77,523.8,1250.11,530,1253.31,536.2Z"/><path class="cls-23" d="M1242.72,491.31l1.46,3.29c1.18.09,2.27.24,3.36.25,4.47,0,8.94,0,13.41,0,2.22,0,4.47.2,6.6-.78a2.84,2.84,0,0,1,1.42-.17c5.13.53,10.11-1,15.2-1.18,3.14-.11,6.26-1,9.4-1.43,7.38-1.08,14.64-2.86,21.89-4.64-.3,13.32,1.56,26.43,3.51,39.53.48,3.18,1,6.36,1.45,9.55-5,.09-9.91.2-14.86.26q-23.5.3-47,.55c-1.75,0-3.49-.21-5.24-.32-3.2-6.24-6.54-12.4-9.55-18.74a89.3,89.3,0,0,1-7.84-27Z"/><path class="cls-18" d="M1285.9,322.15a60.92,60.92,0,0,1-24.67,6.62,18.67,18.67,0,0,1-6.53-1.1c-3.79-1.21-6-4.17-7.11-8.17.62-2.89,1.23-5.79,1.85-8.68a37.93,37.93,0,0,0,9.46-.93,35.37,35.37,0,0,0,18.43-12,4.92,4.92,0,0,0,.56-1.6c-.4-.25-.55-.43-.67-.41a11.69,11.69,0,0,0-1.38.36,51.07,51.07,0,0,1-18.84,2.41c-2.23-.13-4.47,0-6.7.05a17.64,17.64,0,0,0-1.92-.1c-4.47.21-7.23-2.15-8.69-6.49a22.34,22.34,0,0,1-.77-2.4,63.85,63.85,0,0,1-2-15.1c.08-4.93,0-9.88-.06-14.82.05-.54.09-1.08.14-1.61,1.86-.09,2.88-1.41,3.59-3,1.11-2.45,2.13-4.95,3.1-7.47s1.89-5.43,3-8.06A23.42,23.42,0,0,1,1258,227.82c1.11.44,1,1.63,1.3,2.53,1.85,5.07,3.57,10.2,5.55,15.21a52.56,52.56,0,0,0,3.7,7.15c4,6.88,9.39,12,16.88,14.28,2,.6,3.92,1.37,6,2.11.73,2.65-.52,5-.79,7.52a62.84,62.84,0,0,1-1.49,6.95c-.7,1.32-1.43,2.61-2.08,3.95a9,9,0,0,0-1,2.76c-.66,6.33-2.16,12.55-2.15,19,0,2.47-1,4.82-.26,7.47A17.32,17.32,0,0,0,1285.9,322.15Z"/><path class="cls-24" d="M325.56,811.86a15.73,15.73,0,0,0-9.39-2.16,27.06,27.06,0,0,1-3.7-.19c.17-1.94,1.78-2.23,3-2.92,7.23-4.07,14-8.71,19.56-15.27a26.17,26.17,0,0,1,2-2.17c6.12-5.79,9.71-13.37,13.16-21.07.45-3.69,2.94-6.82,2.61-10.73,1.35-2.85.13-6.49,2.51-9.06.48-.51-.3-1.8-1.1-1.82-2.56-.1-5.11-.07-7.67-.16-1.88-.07-3.81.33-6.13-.61,1.65-3.12.08-5.46-1.61-7.8-.87-1.21-1.5-2.62-2.39-3.81-1.71-2.31-3.66-4.28-6.73-4.08h0a2.4,2.4,0,0,0-1.47-2.32c-2.86-1.28-5.69-2.67-8.6-3.81a28.07,28.07,0,0,0-4.51-1c-1.23-2.36-2.45-4.73-3.7-7.08-1.5-2.83-3.22-5.46-5.93-7.15-2.87-1.81-5.72-3.64-8.62-5.39-2.62-1.59-5.32-3-7.93-4.65-1.22-.74-2.81-1.67-2.07-3.44s2.5-.89,3.86-.93a3.88,3.88,0,0,1,.94.17,25.08,25.08,0,0,1,15.79,10.52,78.67,78.67,0,0,0,7.32,8.66,21,21,0,0,0,12.11,6.6c1.25,2.2,3.34,3.52,5,5.34a60.71,60.71,0,0,0,8.51,8.15c7,5.3,14.11,7,22.44,3.39,5.85-2.56,10.84-6.41,16.06-10a2.38,2.38,0,0,0,1.19-2.77,14.66,14.66,0,0,0-1.58-.52,45.82,45.82,0,0,1-17.9-8.11,24.68,24.68,0,0,1-2.9-2.61,7.93,7.93,0,0,1-.91-2,12.94,12.94,0,0,1,7.28-.16c7.12,1.74,14.25,3.42,21.35,5.25a7.62,7.62,0,0,0,4.18-.13c4.68-1.3,7.7-4.59,9.92-8.93,1.7-3.32,2.31-7,3.11-10.64a5.69,5.69,0,0,0-.31-3,15.63,15.63,0,0,0-5.37-7.59c-5-3.59-10.5-5.58-16.25-7.08a10.31,10.31,0,0,1-1.54-.63c0-2.11,1.47-2.39,2.53-3a52.59,52.59,0,0,0,14.85-11.83,113.6,113.6,0,0,0,12.07-17.64,6.6,6.6,0,0,0,.59-1.39c.43-1.32-.52-2.56-1.76-2.08-2.33.91-4.71.73-7.1.76a74,74,0,0,1-11.87-.91c-7.12-1.08-14.11-2.41-20.6-5.88a31.32,31.32,0,0,0-3.56-1.4l3.68-4c2.72,0,5.56.44,8.13-.23,4-1,7.92-.68,11.89-.84,1.76-.07,3.61.22,5.24-.3a21.71,21.71,0,0,1,6.63-.72q4.56,0,9.11,0a12,12,0,0,0,7.69-2.45c5.45-4.35,9.16-9.9,9.09-17.58,0-1.7-.06-3.4,0-5.1.18-4.7-1.16-9-2.73-13.32a16.85,16.85,0,0,0-6-7.68,30.07,30.07,0,0,0-10.88-5c-3.39-.86-6.85-1.4-10.28-2.08.49-1.26,1.09-2.47,1.45-3.76.9-3.25,2.14-6.48,2.43-9.8a72,72,0,0,0-.67-17.76c-1.34-8.39-5-15-11.64-19.6a11.11,11.11,0,0,1-1.09-1c-1-3.41-1.87-6.83-2.88-10.21-1.07-3.56-2.16-7.11-3.37-10.61a23.81,23.81,0,0,1-1.42-9,8.74,8.74,0,0,0,1-4.88,104.69,104.69,0,0,1,1.78-20.14c.87-5.31,1.25-10.71,2.15-16,.84-5,1.9-9.94,3.18-14.81,1.54-5.86,3.32-11.65,5.16-17.42a186.07,186.07,0,0,1,13.46-31.93,164.44,164.44,0,0,1,11-17.82c3.95-5.5,8-11,13.37-15.07,2.59,4,3.49,8.7,4.56,13.26a33.84,33.84,0,0,1,1.12,9,38.76,38.76,0,0,1-5.51,19.15,78.65,78.65,0,0,1-5.47,7.69c-5,6.31-8.82,13.4-10,21.67a31.29,31.29,0,0,0,.42,11.63c1.33,5.64,2.89,11.12,6.17,15.87a36,36,0,0,0,2.57,3c-.37,5.42-.71,10.84-1.12,16.25a425.42,425.42,0,0,0-1.35,48.43,60.69,60.69,0,0,0,.91,7.59,6.27,6.27,0,0,0,2.22,4.34c2.06.44,3.77-.71,5.54-1.34,12.12-4.3,24.37-8.12,36.8-11.29a220.28,220.28,0,0,1,42.54-6.94c5.55.51,11.11-.05,16.69,1,7.19,1.37,14,3.38,19.77,8.29a26,26,0,0,1,5,5.4,103.32,103.32,0,0,1,6.13,10.93c6.79,13.88,12.92,28.08,18.67,42.5,5.55,13.92,10.56,28.06,15.25,42.32,3.43,10.41,6.36,21,9.27,31.6a318.34,318.34,0,0,1,9.39,45.63,184.64,184.64,0,0,1,1.77,24.31,79.09,79.09,0,0,1-2.48,18.06A85.29,85.29,0,0,1,595.73,773a111,111,0,0,1-15,17.15,93,93,0,0,1-14.84,11.12,121.09,121.09,0,0,1-25.28,12.07,102.17,102.17,0,0,1-20,4.69,47.18,47.18,0,0,0-6.4,1.69c-1.43.07-2.86.2-4.3.2l-149.42,0c-1.91,0-3.82-.13-5.74-.2.28-2.62-1.55-3.94-3-5.46a7.42,7.42,0,0,0-5.58-2.48Q335.86,811.83,325.56,811.86Z"/><path class="cls-22" d="M1222.58,671.78c3.14.19,6.28.51,9.41.52,4.09,0,8.17-.22,12.26-.34a32.37,32.37,0,0,1,.69,4.45c.09,4.42,0,8.85,0,13.27q0,39.83,0,79.63c0,1.82.46,3.75-.7,5.6l-3.09,1c-3.36,1.09-6.84,1.86-10,3.33-17.12,7.88-28.61,21.21-33.87,40.41-1.27.07-2.54.21-3.81.21H1088.22c-.64,0-1.27,0-1.91-.05a10.5,10.5,0,0,1,3-6.15,9.15,9.15,0,0,0,2-8.85c-.47-1.92-.29-4.08-2-5.52l-3.12-12.57c2.43-.53,3.59-2.6,4.87-4.53,11.22-16.92,21.79-34.29,31.49-52.25,9.78-18.11,18.84-36.6,25.32-56.39a7,7,0,0,1,.73-1.3,13.65,13.65,0,0,0,1.42.14q34.9,0,69.82,0A12.22,12.22,0,0,0,1222.58,671.78Z"/><path class="cls-13" d="M514.2,819.7a47.18,47.18,0,0,1,6.4-1.69,102.17,102.17,0,0,0,20-4.69,121.09,121.09,0,0,0,25.28-12.07,93,93,0,0,0,14.84-11.12,111,111,0,0,0,15-17.15,85.29,85.29,0,0,0,12.85-28.82,79.09,79.09,0,0,0,2.48-18.06,184.64,184.64,0,0,0-1.77-24.31,318.34,318.34,0,0,0-9.39-45.63c-2.91-10.59-5.84-21.19-9.27-31.6-4.69-14.26-9.7-28.4-15.25-42.32-5.75-14.42-11.88-28.62-18.67-42.5a103.32,103.32,0,0,0-6.13-10.93,26,26,0,0,0-5-5.4c-5.77-4.91-12.58-6.92-19.77-8.29-5.58-1.07-11.14-.51-16.69-1,1.69-.36,3.39-.77,5.09-1.1a218.31,218.31,0,0,1,24.7-2.91c4.13,0,8.26,0,12.39.08a32.48,32.48,0,0,1,8,.76c3,.81,6.24.91,9.37,1.32,1.62.69,3.24,1.41,4.88,2a31.27,31.27,0,0,1,14.85,11.53c1.7,2.46,3.39,4.93,5.15,7.34.87,1.19,1.91,2.24,2.87,3.35a19.59,19.59,0,0,0,1.13,2.75q4.2,7.1,8.51,14.11c6.48,10.49,12.14,21.49,17.82,32.46,4.54,8.76,8.69,17.75,13,26.63a6.27,6.27,0,0,0,.32,1.48q5.79,12,10.51,24.55c2.79,7.4,5.75,14.73,8.27,22.22,2.48,7.34,4.51,14.84,6.73,22.27,2.91,9.71,4.07,19.8,5.82,29.76-.17,8.47.72,17-.9,25.39a88.14,88.14,0,0,1-4.7,17c-4.49,10.8-10.28,20.7-18.57,28.75-.94.91-1.84,1.89-2.71,2.88-5.4,6.14-12,10.71-18.69,14.88a113.09,113.09,0,0,1-32.75,13.86c-7.11,1.73-14.22,3.62-21.63,3.41a9.63,9.63,0,0,0-2.69.73c-2.24.06-4.47.16-6.7.17H519.46C517.71,819.85,516,819.75,514.2,819.7Z"/><path class="cls-21" d="M565.94,819.68a9.63,9.63,0,0,1,2.69-.73c7.41.21,14.52-1.68,21.63-3.41A113.09,113.09,0,0,0,623,801.68c6.74-4.17,13.29-8.74,18.69-14.88.87-1,1.77-2,2.71-2.88,8.29-8,14.08-17.95,18.57-28.75a88.14,88.14,0,0,0,4.7-17c1.62-8.42.73-16.92.9-25.39-1.75-10-2.91-20-5.82-29.76-2.22-7.43-4.25-14.93-6.73-22.27-2.52-7.49-5.48-14.82-8.27-22.22Q643,626,637.25,614a6.27,6.27,0,0,1-.32-1.48c11.34,0,22.69,0,34-.15,2.76,0,4.53,1.28,5.94,3.49a10.65,10.65,0,0,1,1.22,2.76c1,3.74,2.23,7.44,2.06,11.43a20.7,20.7,0,0,0,.2,3c.55,4.86,1.22,9.71,1.65,14.58a55.24,55.24,0,0,0,3.32,15.77c2.88,7.17,5.84,14.27,9.32,21.17,5.13,10.17,10.35,20.28,15.81,30.25,3.45,6.3,6.81,12.67,10.4,18.88,6.17,10.69,12.51,21.27,18.73,31.94a3.78,3.78,0,0,0,3,2.22c.09,1.18.16,2.36.29,3.52.21,1.83.49,3.66.7,5.49.47,4-1,7.63-2,11.37a36.19,36.19,0,0,0-1.78,5.26c-.68,3.69.25,7.14,4,8.76a27.7,27.7,0,0,0,10.68,2.34,45,45,0,0,1,7.58.8c2.88.51,5.5,1.72,8.29,2.39-3.76,2.59-8,4-12.22,5.31-4.85,1.48-9.64,3.17-14.67,4-4.83.84-9.6,2-14.54,1.86a10.28,10.28,0,0,0-2.71.65c-1.59.07-3.18.22-4.77.22q-75.9,0-151.78,0C568.48,819.88,567.21,819.75,565.94,819.68Z"/><path class="cls-2" d="M1197.25,819.65c5.26-19.2,16.75-32.53,33.87-40.41,3.2-1.47,6.68-2.24,10-3.33l3.09-1c1.16-1.85.7-3.78.7-5.6q0-39.81,0-79.63c0-4.42.06-8.85,0-13.27a32.37,32.37,0,0,0-.69-4.45c2.33-.07,4.66-.22,7-.17.69,0,1.36.61,2,.93q0,51.79.08,103.57a1.7,1.7,0,0,0,.09.5,9.35,9.35,0,0,0,.42.87c.83.38,2,.94,3.12,1.44,15,6.64,25.73,17.93,32.26,33.74.89,2.16,1.76,4.4,1.5,6.88-1.44,0-2.88.14-4.31.14H1202C1200.44,819.86,1198.85,819.72,1197.25,819.65Z"/><path class="cls-9" d="M1290.75,819.72c.26-2.48-.61-4.72-1.5-6.88C1282.72,797,1272,785.74,1257,779.1c-1.16-.5-2.29-1.06-3.12-1.44a9.35,9.35,0,0,1-.42-.87,1.7,1.7,0,0,1-.09-.5q0-51.78-.08-103.57H1261q0,33.66,0,67.31,0,14.78,0,29.57c0,1.67,0,3.35.08,5,1.55.43,2.77.81,4,1.11q32.49,7.75,44,41c.33,1,.57,1.94.85,2.91Z"/><path class="cls-25" d="M325.56,811.86q10.31,0,20.59-.12a7.42,7.42,0,0,1,5.58,2.48c1.46,1.52,3.29,2.84,3,5.46H329C329,816.51,327.19,814.23,325.56,811.86Z"/><path class="cls-19" d="M1059.55,819.73c1.45-1.44,3.33-1.73,5.15-2.17,3.8-.91,7.59-1.89,11.81-1.43l.58,3.35Z"/><path class="cls-4" d="M1249.44,310.82c-.62,2.89-1.23,5.79-1.85,8.68a54.22,54.22,0,0,0-12.2,2.45c-1.36.47-2.72,1-4.07,1.49-6.82,2.7-11,7.71-12.49,15.43-1.84,9.65-4,19.23-5.87,28.87a41.73,41.73,0,0,1-3.15,10.1,71.28,71.28,0,0,0-6.9,22.14,46,46,0,0,0-.23,7.61c.16,3.9.55,7.78.85,11.67-.39,1.65-.8,3.29-1.17,4.94q-1.81,7.91-3.6,15.81a273.77,273.77,0,0,1-1.2-32.53c.09-9,0-18,0-27.06,0-3.21-.34-6.47.8-9.59a4.2,4.2,0,0,0,.13-1.51c-.27-7.5,1-14.88,2.16-22.18a242.68,242.68,0,0,1,11.5-46.6A139.06,139.06,0,0,1,1231,264.68c1.52-2,2.93-4.57,5.82-4.92,0,4.94.14,9.89.06,14.82a63.85,63.85,0,0,0,2,15.1,22.34,22.34,0,0,0,.77,2.4c1.46,4.34,4.22,6.7,8.69,6.49.64,0,1.28.06,1.92.09.15,3.11.29,6.2-.68,9.23A11.76,11.76,0,0,0,1249.44,310.82Z"/><path class="cls-23" d="M1198.76,440q1.8-7.9,3.6-15.81c.37-1.65.78-3.29,1.17-4.94.92.94.75,2.17.77,3.35,0,2.7-.06,5.4.76,8.06a15.45,15.45,0,0,1,.21,4.05c.07,2.7-.2,5.42.75,8a8.11,8.11,0,0,1,.19,2.53,71.07,71.07,0,0,0,.8,11.63c.59,3.11.15,6.43.2,9.66a48.9,48.9,0,0,0,.68,9.09c.56,2.76.2,5.74.24,8.63-1,.28-2.07.58-3.12.82s-2.4.47-3.6.7q-2.81-9.75-5.62-19.48c-.08-1.5.06-3.05-1.11-4.21h0c0-1.16,0-2.31-.94-3.12l0,.05c0-1.37,0-2.74-.07-4.11.81-1.21,2-2.32,2.37-3.67C1197.14,447.59,1197.88,443.78,1198.76,440Z"/><path class="cls-26" d="M1169.73,437.4a30,30,0,0,1,6.07-11.23c1.41,0,3,0,3.8,1.41a10.75,10.75,0,0,1,1.56,4,43.56,43.56,0,0,1,0,5.94l-10.49.05Z"/><path class="cls-27" d="M1170.72,437.6l10.49-.05c1.7.05,3.39.07,5.09.15,1.11.06,1.58.84,1.72,1.93-1.73-.22-3.45-.5-5.19-.63-2.69-.19-5.39-.26-8.09-.42C1173.36,438.5,1171.83,439,1170.72,437.6Z"/><path class="cls-27" d="M1191.84,452a14.42,14.42,0,0,1-2.88-9.36A14.4,14.4,0,0,1,1191.84,452Z"/><path class="cls-27" d="M1193.7,455c0,1.37,0,2.74.07,4.11a9.5,9.5,0,0,1-1.93-6.31Z"/><path class="cls-27" d="M1189,442.71c-1.16-.74-1-2-1-3.1C1189.16,440.34,1189,441.57,1189,442.71Z"/><path class="cls-14" d="M789.55,517.43l-9.69-4.23a13.39,13.39,0,0,1,3.48-6c5-5.5,9.87-11.16,15.29-16.16a165.35,165.35,0,0,1,19.48-15.5c8.6-5.82,17-12,25.93-17.22,12-7.07,24.28-13.61,36.59-20,8.29-4.32,16.79-8.2,25.31-12,10.27-4.58,20.66-8.87,31-13.26,3.4-1.44,6.88-2.69,10.25-4.21a9.52,9.52,0,0,1,4.64-.9h0a26.63,26.63,0,0,1-3.62,2.35c-12.79,5.68-25.48,11.62-37.91,18.17-4.57,2.41-9.3,4.48-13.82,7-14.57,8.05-29.21,16-43.08,25.37-5.1,3.45-10.37,6.66-15.34,10.32-6.81,5-13.54,10.13-20,15.58a137.77,137.77,0,0,0-13.78,13.36C799.19,505.7,793.75,511,789.55,517.43Z"/><path class="cls-22" d="M873.24,540.11c-5.78-.06-11.27-2.09-17-2.76-3.63-.43-7.24-1.09-10.86-1.58-5.37-.73-10.74-1.36-16.1-2.11a25,25,0,0,1-5.12-1.22,20.34,20.34,0,0,1-4.7-2.48c-2.43-1.72-2.31-3.91.23-5.63a14.52,14.52,0,0,1,3.44-1.76,33.53,33.53,0,0,1,11.23-2.21c3.35,0,6.71.11,10.06-.07,8.13-.43,15.4,2.46,22.28,6.59,6.53,3.92,12.89,8.15,19.3,12.29a7,7,0,0,1,1.29,1.46l-4.7-.16Z"/><path class="cls-22" d="M925,550.07l-20.27,15.27c-.72-.61-1.49-1.17-2.17-1.82-2.43-2.31-4.87-4.61-7.21-7a6.68,6.68,0,0,1-.93-2.13,30,30,0,0,0,7.58-7.29c1.94-.28,3.77.31,5.66.68a53.79,53.79,0,0,0,13.8,1.39C922.72,549.08,924.09,548.75,925,550.07Z"/><path class="cls-14" d="M902,547.09a30,30,0,0,1-7.58,7.29c-2.17-.33-3.81-1.84-5.25-3.27-4.26-4.24-9.32-6.92-14.61-9.22a1.93,1.93,0,0,1-1.36-1.78l9.38.36,4.7.16a6.41,6.41,0,0,1,1.4.25c4.12,1.7,8.23,3.41,12.32,5.17C901.44,546.22,901.71,546.74,902,547.09Z"/><path class="cls-14" d="M951.84,408c.19-.25.34-.59.58-.7s.46.2.69.31c-.12.09-.24.24-.37.27a7.06,7.06,0,0,1-.91.11Z"/><path class="cls-14" d="M956.62,405.88c-.19.24-.34.58-.59.69s-.43-.19-.66-.31c.12-.08.24-.22.38-.25a8.65,8.65,0,0,1,.89-.1Z"/><path class="cls-14" d="M956.64,405.91c.19-.23.34-.57.58-.68s.44.19.66.3a1.14,1.14,0,0,1-.38.25,8.78,8.78,0,0,1-.88.1Z"/><path class="cls-14" d="M960.63,404.12l.1.37a1.18,1.18,0,0,1-.4.1s-.07-.22-.1-.34Z"/><path class="cls-28" d="M386.31,523.65a11.11,11.11,0,0,0,1.09,1c6.68,4.65,10.3,11.21,11.64,19.6a72,72,0,0,1,.67,17.76c-.29,3.32-1.53,6.55-2.43,9.8-.36,1.29-1,2.5-1.45,3.76-.92,1.16-1.81,2.34-2.77,3.47-2.21,2.59-4.84,4.46-8.21,4.73-4.93.39-9.86.69-14.79,1-1.91.13-3.81.32-5.71.48-1.42,0-2.84-.09-4.25,0-1.74.11-3.47.35-5.21.55-3.46.41-6.93.77-10.39,1.28a15.35,15.35,0,0,0-3.63,1.16,2.32,2.32,0,0,0-.8,4,9.56,9.56,0,0,0,1.86,1.57c4,2.45,8.15,4.49,12.79,5.17,3.09.73,6.16,1.64,9.28,2.13a64.94,64.94,0,0,0,9.93.86c3.12,0,6.24-.5,9.72-.82a21.21,21.21,0,0,1-.73,3.25,125.75,125.75,0,0,1-12,21.86c-1,1.49-2,3-3,4.57l-3.68,4a53.52,53.52,0,0,1-12.59,8.94l-4.73.9c-3.82-.55-7.63-1.11-11.45-1.63a11.47,11.47,0,0,0-1.85,0c-2.65-1.34-5.28-2.72-7.95-4a5.81,5.81,0,0,0-1.84-.24c-.19-.28-.31-.65-.56-.81-5.22-3.29-10.41-6.65-15.7-9.81a16.64,16.64,0,0,0-8.23-2.52,86.17,86.17,0,0,0-10.54.12,37.88,37.88,0,0,0-7.86,2c-.76.26-1.3,1.3-1.88,1.91a5.14,5.14,0,0,0,3.65,3.43,38.39,38.39,0,0,0,6,1.51c4.74.73,9.52,1.22,14.25,2,4.1.64,8.18,1.48,12.26,2.23.36.31.67.77,1.08.91a23.68,23.68,0,0,1,7.73,4.6c1.4,1.2,2.8,2.75,4.84,2.89.19.61.21,1.41.6,1.8,1.91,1.93,3.92,3.76,5.9,5.62.21.63.47,1.26.63,1.91.91,3.66.45,4.74-2.76,6.46a19.12,19.12,0,0,1-3.07,1.38,59.67,59.67,0,0,1-16.33,3.12c-1.27,0-2.53.16-3.8.3-1.88.19-3.76.62-5.65.63-6.66,0-13.25-1.06-19.84-1.94l-5.27-.72c-3.74-1.44-7.52-2.76-11.18-4.37-2.77-1.22-5.39-2.81-8.08-4.24q-2.12-3.25-4.24-6.5c-.56-2.12-1.18-4.22-1.67-6.35a7.55,7.55,0,0,1-.08-2.51,43.09,43.09,0,0,1,10.19-22.6,137.62,137.62,0,0,1,27-24.94A274.24,274.24,0,0,1,314.7,579.5q14.24-7.85,28.52-15.61c2.55-1.38,5.24-2.47,7.83-3.77.48-.24.82-.82,1.5-1.54-.91-.09-1.43-.31-1.79-.15-6.34,2.78-12.69,5.5-19,8.44-5.4,2.52-10.69,5.3-16,7.94-2.75,1.36-5.59,2.51-8.25,4-4.78,2.72-9.41,5.73-14.18,8.46A151.63,151.63,0,0,0,267,606.47c-7.64,6.92-14.73,14.61-18.41,25-.1.28-.45.47-.68.7-6.17-3.15-11.12-8-15.7-13.21a52.71,52.71,0,0,1-8.3-13.06c-5.07-11.13-2.91-26.24,5.31-35.12,5-5.34,9.84-10.76,15.81-14.82,3.48-2.37,7.24-4.29,10.9-6.37a5.47,5.47,0,0,1,1.66-.22,21.82,21.82,0,0,1,.07,3.5c-.75,5.72-1.6,11.42-2.37,17.14-.2,1.51-.25,3-.38,4.57-.21,2.71-.38,5.43-.65,8.13-.42,4.29.3,8.49.95,12.68a5.86,5.86,0,0,0,2.15,3.86,1.7,1.7,0,0,0,2.57-.18c1-1.74,2.15-3.52,2.47-5.43a124.18,124.18,0,0,0,2-16.16c.33-9.53.13-19.07.15-28.61v-5a7.4,7.4,0,0,1,1.25-1.1c15.46-7.86,31.28-14.72,48-18.82,3.19-.78,6.48-1.84,9.76-1.1,1,1.41.15,2.41-.36,3.41-2.88,5.69-5.91,11.3-8.67,17.06-2.62,5.46-5.06,11-7.37,16.62a49.77,49.77,0,0,0-2,7.32,2.14,2.14,0,0,0,.9,2.65,2.9,2.9,0,0,0,2.21-.17,23,23,0,0,0,7.06-6c3.25-4,6.52-8,9.54-12.14,4.27-5.94,8.34-12.06,12.46-18.12a24.76,24.76,0,0,0,1.38-2.66c1.77-2.61,3.7-5.12,5.27-7.86,1.39-2.4,3-3.63,5.79-3.64,3.82,0,7.62-.76,11.44-.82a58.41,58.41,0,0,1,22.49,4.15C384.5,523,385.41,523.3,386.31,523.65Zm-31.95,34c.11.11.24.33.32.31a14.33,14.33,0,0,0,2-.6.94.94,0,0,0,.09-.76c-.72-.65-1.4-.27-2,.24A2.71,2.71,0,0,0,354.36,557.65Zm7.53-2.42c-.36-.5-.57-.93-.68-.91a7.78,7.78,0,0,0-1.73.62c-.14.08-.13.54-.13.83a.47.47,0,0,0,.37.23C360.42,555.78,361.1,555.52,361.89,555.23ZM364,553.5c0,.1,0,.25.07.3a1,1,0,0,0,.35.08l-.09-.52Z"/><path class="cls-25" d="M212.55,704.45l-5.19-12.79-.51-1.62.07.09q-.51-6-1-12.11l-2-22.74a19.56,19.56,0,0,1,1.82-2.28,52.64,52.64,0,0,0,11.55-15.1c3.76.29,7,2,10.14,4.07,5.77,3.91,11.45,7.93,15.58,13.94.22.33.87.31,1.32.46-1.44,7.73-4.78,14.63-8.3,21.45-.61,1.19-1.29,2.33-1.84,3.55a92.35,92.35,0,0,0-7.33,26.1A2.89,2.89,0,0,1,224,706.2a24.45,24.45,0,0,0-3.14-3.67c-1.4-1.41-2-1.34-3.73-.35C215.66,703,214.09,703.7,212.55,704.45Z"/><path class="cls-14" d="M226.85,707.47a92.35,92.35,0,0,1,7.33-26.1c.55-1.22,1.23-2.36,1.84-3.55,3.52-6.82,6.86-13.72,8.3-21.45a92.93,92.93,0,0,0,2.51-9.71c.72-4.79,2.09-9.57,1-14.51.23-.23.58-.42.68-.7,3.68-10.37,10.77-18.06,18.41-25a151.63,151.63,0,0,1,26.38-19.18c4.77-2.73,9.4-5.74,14.18-8.46,2.66-1.51,5.5-2.66,8.25-4,5.35-2.64,10.64-5.42,16-7.94,6.27-2.94,12.62-5.66,19-8.44.36-.16.88.06,1.79.15-.68.72-1,1.3-1.5,1.54-2.59,1.3-5.28,2.39-7.83,3.77q-14.3,7.74-28.52,15.61a274.24,274.24,0,0,0-23.36,14.89,137.62,137.62,0,0,0-27,24.94,43.09,43.09,0,0,0-10.19,22.6,7.55,7.55,0,0,0,.08,2.51c.49,2.13,1.11,4.23,1.67,6.35-2.87,2.06-4.71,5.07-6.45,8.12a186.36,186.36,0,0,0-12,25.52,52.63,52.63,0,0,0-1.73,5.82c-2.07,8.1-2.07,16.47-2.73,24.74a61.68,61.68,0,0,0,.81,14.73H227c-.2-2.53-.51-5.05-.56-7.58-.07-3.2,0-6.41.13-9.62C226.61,710.83,226.75,709.15,226.85,707.47Z"/><path class="cls-27" d="M742.59,767.85a3.78,3.78,0,0,1-3-2.22c-6.22-10.67-12.56-21.25-18.73-31.94-3.59-6.21-7-12.58-10.4-18.88-5.46-10-10.68-20.08-15.81-30.25-3.48-6.9-6.44-14-9.32-21.17A55.24,55.24,0,0,1,682,647.62c-.43-4.87-1.1-9.72-1.65-14.58a20.7,20.7,0,0,1-.2-3c.17-4-1-7.69-2.06-11.43a10.65,10.65,0,0,0-1.22-2.76c-1.41-2.21-3.18-3.52-5.94-3.49-11.34.16-22.69.12-34,.15-4.32-8.88-8.47-17.87-13-26.63-5.68-11-11.34-22-17.82-32.46q-4.32-7-8.51-14.11a19.59,19.59,0,0,1-1.13-2.75l14.64-4.67c.26.19.5.52.78.55,4,.45,7.9.85,11.85,1.29,1.73.2,3.45.48,5.18.73a17.35,17.35,0,0,0,1.9.26c5.1.06,10.1,1.05,15.12,1.91,3.45.59,7,.71,10.42,1.22,3.93.59,7.86,1.25,11.74,2.11q10.74,2.36,21.41,5a65.93,65.93,0,0,1,16.12,6.36,16.5,16.5,0,0,1,6.07,5.64,94.36,94.36,0,0,1,7.36,14.24A261.37,261.37,0,0,1,728,597c2.89,9.69,5.43,19.51,7.93,29.32,2.8,11,5.38,22,8,33a13.39,13.39,0,0,1,.51,2.47,16.62,16.62,0,0,0,2.87,8c-.26.57-.83,1.22-.73,1.71,1.7,8.44,3.54,16.84,5.25,25.27Q754.5,709.85,757,723c1.09,5.81,2,11.65,3.11,17.45s2.34,11.58,3.43,17.38c.47,2.49.73,5,1.11,7.52a4.49,4.49,0,0,1-1.9,4.32c-1.58.21-3.15.45-4.73.62a13.24,13.24,0,0,1-2.81.09A77.66,77.66,0,0,1,742.59,767.85Z"/><path class="cls-3" d="M539.23,501.2a7.6,7.6,0,0,0-4.51-1.3c-11.77.06-23.54.06-35.31.09a27,27,0,0,0-2.84.23c-2,.23-4.07.63-6.12.7-3.65.13-7.31.07-11,.09a91.84,91.84,0,0,1-9.59-15c-.81-1.62-1.72-3.19-2.59-4.78q-1.11-2.92-2.23-5.84c-.11-4,1.52-7.61,2.29-11.4.22-1.1,1.5-2.18,2.54-2.84q14.28-9.12,29.81-2.59a137,137,0,0,1,31,18.1c5.52,4.3,10.74,9,14.82,15.06,1.67,2.48,3.87,4.53,4.48,7.69Z"/><path class="cls-18" d="M539.23,501.2,550,499.44c.63-.06,1.26-.07,1.88-.19a7.64,7.64,0,0,1,7,2.28c3.53,3.33,7.22,6.5,9.9,10.72-3.13-.41-6.33-.51-9.37-1.32a32.48,32.48,0,0,0-8-.76c-4.13,0-8.26-.05-12.39-.08C539,507.13,539.14,504.16,539.23,501.2Z"/><path class="cls-9" d="M467.3,481.26c.87,1.59,1.78,3.16,2.59,4.78a91.84,91.84,0,0,0,9.59,15c-.4.24-.79.64-1.22.7q-9.42,1.17-18.85,2.24a8.27,8.27,0,0,1-1.72-.24,34,34,0,0,1,2.4-9c1.47.3,2,2.64,4.17,2.22-.8-5,1.09-9.44,2-14.05C466.35,482.28,466.94,481.79,467.3,481.26Z"/><path class="cls-6" d="M592.74,470.31l5.9,1.63c.92,4,1.74,8.06,2.8,12a19.38,19.38,0,0,1,.93,6.84,22,22,0,0,1-1.89-2.82q-3.45-7.14-6.76-14.36A24,24,0,0,1,592.74,470.31Z"/><path class="cls-15" d="M467.3,481.26c-.36.53-.95,1-1.06,1.6-.89,4.61-2.78,9-2,14.05-2.18.42-2.7-1.92-4.17-2.22,1.19-6.56,2.52-13.08,5-19.27Q466.2,478.33,467.3,481.26Z"/><path class="cls-6" d="M584.06,419.21l1,1.11Z"/><path class="cls-6" d="M602.34,490.75c.31.51.62,1,.94,1.54C603,491.78,602.65,491.26,602.34,490.75Z"/><path class="cls-21" d="M811.63,741.17l2.75-2.46c-1.28-6.35-2.44-12.81-3.91-19.19-4.64-20.22-9.28-40.44-14.14-60.61-2.89-12-6.25-23.81-9.26-35.75-4.46-17.69-9.89-35.06-15.55-52.35-1.52-4.64-3.35-9.16-5-13.75-.45-1.26-.71-2.59-1-3.88,1.06-1.43,2.51-1.19,3.89-.92,2.59.51,5.15,1.21,7.75,1.64.61.1,1.33-.56,2-.87a10,10,0,0,0,4.67,2.25c5.41,1,10.35,3.45,15,6.45,2.4,1.53,3.47,4.39,4.79,6.89a78.73,78.73,0,0,1,6.95,20.55c1.58,7.42,2.76,14.93,4.05,22.42.95,5.48,1.92,11,2.68,16.48.55,4,.7,8.09,1.15,12.13.49,4.36,1.15,8.69,1.68,13,.17,1.34.16,2.71.2,4.07.06,2.38-.15,4.76.72,7.06a6.66,6.66,0,0,1,.22,2.53,52.81,52.81,0,0,0,1.86,15.58,7,7,0,0,1,0,1.52c-1.48,1.57-1.13,3.57-.63,5.25a23.68,23.68,0,0,1,.66,7,161.94,161.94,0,0,1-3,28.09c-1.68,7.21-3.35,14.45-6.72,21.06Q812.54,743.31,811.63,741.17Z"/><path class="cls-18" d="M811.63,741.17q.92,2.13,1.84,4.28c.65,4.66,3.56,8,6.12,11.48.33.45,1.11.52,1.68.76a6.44,6.44,0,0,0,.59,1.89c4.68,6.48,9.71,12.54,17,15.83.31.14.39.86.59,1.31A39.08,39.08,0,0,1,816.4,776c-2.86-1-5.66-2.25-8.46-3.47-5.15-2.24-10.27-4.56-15.41-6.84a17.65,17.65,0,0,1,.45-1.94,26.86,26.86,0,0,0,.55-16.26c-.62-2.41-.85-4.92-1.25-7.39,3,.45,6,.73,9,1.41a14.78,14.78,0,0,0,7.53-.09A12.9,12.9,0,0,1,811.63,741.17Z"/><path class="cls-18" d="M742.59,767.85a77.66,77.66,0,0,0,12.61,2.56,13.24,13.24,0,0,0,2.81-.09c1.58-.17,3.15-.41,4.73-.61a35.75,35.75,0,0,0,7.71,12c1.14,1.15,2,2.65,3.07,3.85,2.43,2.64,4.94,5.19,7.42,7.77,2.21,2.09,4.48,4.07,7.61,4.28,0,.57.05,1.13.07,1.7a40.49,40.49,0,0,1-20.82,0,54.78,54.78,0,0,1-7.68-2.81c-6.19-2.71-12.33-5.55-18.49-8.33.91-3.74,2.42-7.37,2-11.37-.21-1.83-.49-3.66-.7-5.49C742.75,770.21,742.68,769,742.59,767.85Z"/><path class="cls-9" d="M779.13,553c-.67.31-1.39,1-2,.87-2.6-.43-5.16-1.13-7.75-1.64-1.38-.27-2.83-.51-3.89.92-.93-1.94-2-3.82-2.78-5.84a81.49,81.49,0,0,0-8.48-15.86,20.21,20.21,0,0,0-12-8.65,154.22,154.22,0,0,0-18.2-3.64c-5.67-.75-11.42-.57-17-1.9.24-.21.48-.57.74-.6,3.93-.49,7.86-1.14,11.81-1.34,4.61-.24,9.25,0,13.86-.13a54.08,54.08,0,0,1,16.49,2.28,31.77,31.77,0,0,1,15.57,9.43,13.5,13.5,0,0,1,1.58,1.9A141.23,141.23,0,0,1,779.13,553Z"/><path class="cls-27" d="M741.63,788.23c6.16,2.78,12.3,5.62,18.49,8.33a54.78,54.78,0,0,0,7.68,2.81,40.49,40.49,0,0,0,20.82,0,10,10,0,0,1,5.07,1.28c2.67,1.5,5.42,2.84,8,4.43,1.37.82,1.31,2.21.09,3.35-2.83,2.63-6.36,3.08-9.85,3.27-7.42.38-14.57-1.25-21.54-3.89-2.79-.67-5.41-1.88-8.29-2.39a45,45,0,0,0-7.58-.8,27.7,27.7,0,0,1-10.68-2.34c-3.79-1.62-4.72-5.07-4-8.76A36.19,36.19,0,0,1,741.63,788.23Z"/><path class="cls-27" d="M792.53,765.64c5.14,2.28,10.26,4.6,15.41,6.84,2.8,1.22,5.6,2.45,8.46,3.47a39.08,39.08,0,0,0,23.08.77c3.86-.2,7,2,10.24,3.68,1.56.8,3.22,1.53,3.94,3.5a3.76,3.76,0,0,1-2.73,3.15c-4.68,1.7-9.37,2.61-14.44,1.72a102.41,102.41,0,0,1-19.28-5.24c-3.94-1.51-8.08-1.6-12.22-1.41-3.84-1.07-7.89-1.28-11.55-3.09a3.29,3.29,0,0,0-.5-.86c-2.88-2.62-2.91-5.78-1.6-9.22C791.76,767.86,792.14,766.74,792.53,765.64Z"/><path class="cls-9" d="M821.27,757.69c-.57-.24-1.35-.31-1.68-.76-2.56-3.5-5.47-6.82-6.12-11.48,3.37-6.61,5-13.85,6.72-21.06a161.94,161.94,0,0,0,3-28.09,23.68,23.68,0,0,0-.66-7c-.5-1.68-.85-3.68.63-5.25a29.21,29.21,0,0,0,.6,4A80.92,80.92,0,0,1,826.13,702c.46,4.36,1.43,8.67,1.63,13a103.32,103.32,0,0,1-.36,17.75A111.37,111.37,0,0,1,823.17,752C822.57,753.89,821.9,755.79,821.27,757.69Z"/><path class="cls-9" d="M793.44,779c3.66,1.81,7.71,2,11.55,3.09-3.33,4.72-7.6,8.36-12,11.89l-4.49,3.63c-3.13-.21-5.4-2.19-7.61-4.28a3.65,3.65,0,0,1,1.63-2.93A61.9,61.9,0,0,0,793.44,779Z"/><path class="cls-1" d="M869.21,653l1,1.35Z"/><path class="cls-21" d="M793.44,779a61.9,61.9,0,0,1-10.87,11.4,3.65,3.65,0,0,0-1.63,2.93c-2.48-2.58-5-5.13-7.42-7.77-1.11-1.2-1.93-2.7-3.07-3.85a35.75,35.75,0,0,1-7.71-12,4.52,4.52,0,0,0,1.9-4.33c-.38-2.5-.64-5-1.11-7.52-1.09-5.8-2.34-11.57-3.43-17.38s-2-11.64-3.11-17.45q-2.5-13.18-5.16-26.34c-1.71-8.43-3.55-16.83-5.25-25.27-.1-.49.47-1.14.73-1.71,2.44,4.38,4.73,8.85,7.35,13.11q14.52,23.64,29.22,47.16c1.41,2.27,3.13,4.32,4.41,6.65a8,8,0,0,0,4,3.42c.4,2.47.63,5,1.25,7.39A26.86,26.86,0,0,1,793,763.7a17.65,17.65,0,0,0-.45,1.94c-.39,1.1-.77,2.22-1.19,3.31-1.31,3.44-1.28,6.6,1.6,9.22A3.29,3.29,0,0,1,793.44,779Z"/><path class="cls-6" d="M645.64,472.27a13.17,13.17,0,0,1,1.79,2.26q9.52,20.13,19,40.31a7.81,7.81,0,0,1,.37,1.46c-2.52,1.66-5.2.84-7.84.55q-6-19.34-12-38.68C646.35,476.26,646.06,474.24,645.64,472.27Z"/><path class="cls-22" d="M203.91,655.28l2,22.74q.51,6.06,1,12.11a8.25,8.25,0,0,1-1.23-1.42c-4.16-8.09-6.14-16.89-7.26-25.94a30.13,30.13,0,0,1,.2-5Z"/><path class="cls-14" d="M115.39,600.62c1-.75,1.78-.3,2.39.62.08.13-.15.72-.28.74C116.48,602.13,115.63,601.9,115.39,600.62Z"/><path class="cls-14" d="M113.05,599.74a1.29,1.29,0,0,1-.42.1s-.07-.23-.11-.35a1.38,1.38,0,0,1,.42-.11S113,599.61,113.05,599.74Z"/><path class="cls-14" d="M260.12,657.29c2.69,1.43,5.31,3,8.08,4.24,3.66,1.61,7.44,2.93,11.17,4.37,0,1.66-.2,3.34-.08,5a1.51,1.51,0,0,0,2.26,1.05c1.71-1.31,3.28-2.75,3.1-5.32,6.59.88,13.18,1.94,19.84,1.94,1.89,0,3.77-.44,5.65-.63,1.27-.14,2.53-.27,3.8-.3a59.67,59.67,0,0,0,16.33-3.12,19.12,19.12,0,0,0,3.07-1.38c3.21-1.72,3.67-2.8,2.76-6.46-.16-.65-.42-1.28-.63-1.91L347,646.07a7.21,7.21,0,0,1,4.81-1.1c2,.69,3.94,1.39,5.92,2.07a40.38,40.38,0,0,1,10.33,5.29,19.37,19.37,0,0,1,8.37,12.53c.55,3-.24,5.75-.67,8.58a27.9,27.9,0,0,1-5.89,13.75c-3.39,4.11-7.44,6.22-12.8,4.23-4.82-1.8-9.76-3.23-14.65-4.77-3.07-1-6.14-1.93-9.38-1.86-.77,0-1.62-.07-2.2,1.19.34,2.09,1.78,3.68,3.37,5.06,5.49,4.78,11.44,8.68,18.47,10.38a13.71,13.71,0,0,1,2.28,1.12,49.57,49.57,0,0,1-7.1,7.42c-6.2,5.2-12.67,9.87-21,10.22a21,21,0,0,1-12.11-6.6,78.67,78.67,0,0,1-7.32-8.66,25.08,25.08,0,0,0-15.79-10.52,3.88,3.88,0,0,0-.94-.17c-1.36,0-3.15-.75-3.86.93s.85,2.7,2.07,3.44c2.61,1.61,5.31,3.06,7.93,4.65,2.9,1.75,5.75,3.58,8.62,5.39,2.71,1.69,4.43,4.32,5.93,7.15,1.25,2.35,2.47,4.72,3.7,7.08.13,1.35.2,2.69-.85,3.73a4.3,4.3,0,0,1-3.47,1.22,32.54,32.54,0,0,1-4.19-.46c-3.83-.8-7.64-1.71-11.46-2.58l-1.38-.2c-1.74-1.8-4-2.21-6.24-2.89-1.07-.7-2.11-1.46-3.22-2.07-6.89-3.79-13-8.36-16.1-16.43-.39-1-1.24-.74-1.92-.09a22.43,22.43,0,0,0-8.61,7.3c-2.83,2.91-5.93,5.59-8.43,8.79-2.37,3-4.79,6.3-5,10.59l-4.92-.2c2.28-6.39,6.59-11.16,11.07-15.8,2.63-2.73,5.35-5.39,7.79-8.31a51.82,51.82,0,0,0,9.06-15.76c-1.09-1.81-2.16-3.68-3.3-5.51a38.14,38.14,0,0,1-5.45-15.09A20.23,20.23,0,0,1,260.12,657.29Z"/><path class="cls-25" d="M329.72,730c3.07-.2,5,1.77,6.73,4.08.89,1.19,1.52,2.6,2.39,3.81,1.69,2.34,3.26,4.68,1.61,7.8,2.32.94,4.25.54,6.13.61,2.56.09,5.11.06,7.67.16.8,0,1.58,1.31,1.1,1.82-2.38,2.57-1.16,6.21-2.51,9.06.33,3.91-2.16,7-2.61,10.73-3.45,7.7-7,15.28-13.16,21.07a26.17,26.17,0,0,0-2,2.17c-5.51,6.56-12.33,11.2-19.56,15.27-1.22.69-2.83,1-3,2.92-3.79.07-7.57.21-11.35.22-7.42,0-14.84,0-22.26-.06,1.21-.78,2.38-1.63,3.62-2.32,23-12.68,37.73-32.23,43.61-59.2a13.16,13.16,0,0,1,.73-1.85c1.15-.32,2.82.79,3.58-1.64l-3.34-.39c.28-3.51.51-7,.9-10.51.07-.68.85-1.25,1.19-1.94A12.74,12.74,0,0,0,329.72,730Z"/><path class="cls-26" d="M244.31,809.69l-20.91-.29a3.62,3.62,0,0,0-2.38-2.33c-7.14-3.22-13-8.43-19-13.48a30.43,30.43,0,0,1-3.43-3.56,91.29,91.29,0,0,1-14.3-21.53A96.52,96.52,0,0,1,177,745.4a34.53,34.53,0,0,1-.6-11.72c3.11-1.33,6.32-.54,9.44-.67s6.35,0,9.71,0a20.5,20.5,0,0,1,.68,3.12,82.81,82.81,0,0,0,12.37,40.09,88.07,88.07,0,0,0,10.62,14.37,77,77,0,0,0,20,15.46C241.08,807,243.31,807.44,244.31,809.69Z"/><path class="cls-9" d="M260.12,657.29a20.23,20.23,0,0,0-1.64,11.82,38.14,38.14,0,0,0,5.45,15.09c1.14,1.83,2.21,3.7,3.3,5.51a51.82,51.82,0,0,1-9.06,15.76c-2.44,2.92-5.16,5.58-7.79,8.31-4.48,4.64-8.79,9.41-11.07,15.8l-5.55.14A61.68,61.68,0,0,1,233,715c.66-8.27.66-16.64,2.73-24.74a52.63,52.63,0,0,1,1.73-5.82,186.36,186.36,0,0,1,12-25.52c1.74-3,3.58-6.06,6.45-8.12Q258,654,260.12,657.29Z"/><path class="cls-24" d="M266.31,703.1c.68-.65,1.53-1,1.92.09,3.06,8.07,9.21,12.64,16.1,16.43,1.11.61,2.15,1.37,3.22,2.07,0,1.85-1.25,2.86-2.29,4s-2.4,2.08-2.58,3.89l-23,0a44.61,44.61,0,0,1,6-24.1A9,9,0,0,0,266.31,703.1Z"/><path class="cls-9" d="M226.85,707.47c-.1,1.68-.24,3.36-.29,5-.08,3.21-.2,6.42-.13,9.62,0,2.53.36,5,.56,7.58l-12.28-.1c0-1-.1-2-.06-3a66,66,0,0,0-1.92-20.1,12.24,12.24,0,0,1-.18-2c1.54-.75,3.11-1.43,4.6-2.27,1.75-1,2.33-1.06,3.73.35A24.45,24.45,0,0,1,224,706.2,2.89,2.89,0,0,0,226.85,707.47Z"/><path class="cls-25" d="M266.31,703.1a9,9,0,0,1-.6,2.39,44.61,44.61,0,0,0-6,24.1h-6.78a53.37,53.37,0,0,1,3.86-14.86,8.77,8.77,0,0,0,.92-4.33A22.43,22.43,0,0,1,266.31,703.1Z"/><path class="cls-25" d="M295.17,724.78c3.82.87,7.63,1.78,11.46,2.58a32.54,32.54,0,0,0,4.19.46,4.3,4.3,0,0,0,3.47-1.22c1-1,1-2.38.85-3.73a28.07,28.07,0,0,1,4.51,1c2.91,1.14,5.74,2.53,8.6,3.81a2.4,2.4,0,0,1,1.47,2.32c-9.48,0-19-.07-28.42-.14-1.73,0-3.45-.18-5.18-.28C295.8,728,295.49,726.38,295.17,724.78Z"/><path class="cls-24" d="M257.7,710.4a8.77,8.77,0,0,1-.92,4.33,53.37,53.37,0,0,0-3.86,14.86l-8.69.19c.25-4.29,2.67-7.54,5-10.59C251.77,716,254.87,713.31,257.7,710.4Z"/><path class="cls-25" d="M282.68,729.61c.18-1.81,1.56-2.72,2.58-3.89s2.31-2.18,2.29-4c2.2.68,4.5,1.09,6.24,2.89-1,.38-2.05.74-3.06,1.14a3.42,3.42,0,0,0-2.24,3.85Z"/><path class="cls-24" d="M288.49,729.57a3.42,3.42,0,0,1,2.24-3.85c1-.4,2-.76,3.06-1.14l1.38.2c.32,1.6.63,3.2.95,4.8Z"/><path class="cls-24" d="M327.06,744.27l3.34.39c-.76,2.43-2.43,1.32-3.58,1.64Z"/><path class="cls-23" d="M1148.61,672.24a7.37,7.37,0,0,0-.73,1.31c-6.48,19.79-15.54,38.28-25.32,56.39-9.7,18-20.27,35.33-31.49,52.25-1.28,1.93-2.44,4-4.87,4.53a31.21,31.21,0,0,1-16.55-.38c-1.07-.33-2.18-.5-3.28-.74l-1.39-1.09c-.2-6,1.48-11.72,2.49-17.53,1.34-7.65,2.91-15.24,4.33-22.86q2.84-15.17,5.59-30.34c1.38-7.63,2.68-15.28,4-22.92.73-4.15,1.45-8.31,2.21-12.45,1.17-6.47,2.37-12.93,3.56-19.4,1.83-9.94,3.68-19.89,5.48-29.84,1.09-6,2.06-12,3.15-17.93,1.46-8,3-15.9,4.48-23.86,1.13-6.14,2.11-12.3,3.23-18.44.9-5,2-9.92,2.83-14.9a4.75,4.75,0,0,1,2-3.34,77.26,77.26,0,0,1,7.94-4.65c6.26-3,12.94-4.63,19.62-6.19,7.13-1.67,14.28-3.19,21.53-4.23,5.18-.74,10.29-2,15.47-2.79,3.6-.58,7.26-.76,10.89-1.22,4.25-.55,8.47-1.27,12.72-1.79,1.9-.24,3.82-.19,5.74-.24,1.12,0,2.26.06,3-1l8.61-.1c5.3.85,10.25,2.9,15.12,5.16,1.24.58,2.75.95,3.15,2.7-3.31.49-6.64.88-9.93,1.49-6.18,1.14-12.07,3.2-17.19,7.2a21.13,21.13,0,0,0-8.6,17.3q0,6.36,0,12.73,0,16.54.12,33.1a16.11,16.11,0,0,1-3.25.5c-5.87-.25-11.75-.51-17.61-.94-6.35-.47-11.14,2.06-14.23,8a26.53,26.53,0,0,0-3.09,9c-2.1,6.25-2.94,12.81-4,19.31-1.15,7-2.08,14.06-3.91,20.92C1149.82,667.35,1149.23,669.8,1148.61,672.24Z"/><path class="cls-22" d="M1065,784.51l1.39,1.09c-1.63,2.39-3.08,5-6.08,5.75l-.81-6.14A7.21,7.21,0,0,1,1065,784.51Z"/><path class="cls-21" d="M1201.41,485.83c1.2-.23,2.41-.44,3.6-.7s2.08-.54,3.12-.82l-.06,24.78a26.06,26.06,0,0,1-1.13-2.75C1205,499.54,1202.66,492.85,1201.41,485.83Z"/><path class="cls-27" d="M1194.68,462.14c1.17,1.16,1,2.71,1.11,4.21C1194.33,465.27,1194.77,463.62,1194.68,462.14Z"/><path class="cls-27" d="M1193.75,459c1,.81,1,2,.94,3.12C1193.57,461.39,1193.75,460.17,1193.75,459Z"/><path class="cls-2" d="M501.65,364.06c.23,1.59.41,3.2.72,4.77.4,2.07.91,4.12,1.37,6.18-3.17.07-6.36.28-9.53.18a22.9,22.9,0,0,1-10-3.16,54.06,54.06,0,0,1-6.71-4.79c-.32-.24-.39-.83-.63-1.4,1.14-1.16,2.43-.91,3.6-.61a29,29,0,0,0,14.13,0C496.94,364.72,499.31,364.45,501.65,364.06Z"/><path class="cls-6" d="M644.69,470.06l1,2.28C644.74,471.88,644.67,471,644.69,470.06Z"/><path class="cls-18" d="M1060.29,791.35c3-.75,4.45-3.36,6.08-5.75,1.1.24,2.21.41,3.28.74a31.21,31.21,0,0,0,16.55.38l3.12,12.57c-6.14,2.33-12.3,4.63-18.44,7A51.83,51.83,0,0,1,1047,809.8a29.3,29.3,0,0,1-9.72-2.29,44.71,44.71,0,0,1,4.21-2.11c5.24-2,10.19-4.5,14.27-8.67a30.15,30.15,0,0,1,2.69-2A4.34,4.34,0,0,0,1060.29,791.35Z"/><path class="cls-22" d="M206.85,690l.51,1.62Z"/><path class="cls-2" d="M1196.56,608.13q-.06-16.56-.12-33.1,0-6.37,0-12.73a21.13,21.13,0,0,1,8.6-17.3c5.12-4,11-6.06,17.19-7.2,3.29-.61,6.62-1,9.93-1.49,3.63-.1,7.26-.28,10.89-.28a20.69,20.69,0,0,1,3.68.63c-3.1.73-6.23,1.34-9.3,2.22a32.19,32.19,0,0,0-16,9.78,19.88,19.88,0,0,0-4.69,12c-.08,1,0,2,0,3.06,0,28.1.07,56.19,0,84.29,0,8,1.38,15.5,5.22,22.42.24.44.42.91.62,1.37a12.22,12.22,0,0,1-2.73.62q-34.9,0-69.82,0a13.65,13.65,0,0,1-1.42-.14c.62-2.45,1.21-4.9,1.86-7.34,1.83-6.86,2.76-13.91,3.91-20.92,1.06-6.5,1.9-13.06,4-19.31,11.11,0,22.23,0,33.34,0,1.52,0,3.19.49,4.82-1.15C1196.68,618.56,1196.66,613.35,1196.56,608.13Z"/><path class="cls-19" d="M1500.36,589.69c-.69-2.26-.31-4.08,1.52-5.31a3.12,3.12,0,0,1,2.2-.26c.64.13.91,1.85.52,2.71A4.73,4.73,0,0,1,1500.36,589.69Z"/><path class="cls-19" d="M1429.26,589.73c-.31-2.42.27-4.21,1.92-5.43a2.4,2.4,0,0,1,2.11,0c.36.18.6,1.18.52,1.75C1433.43,588.65,1431.66,589.36,1429.26,589.73Z"/><path class="cls-23" d="M1240.55,456.19a32,32,0,0,0,2.33-3.75,111.49,111.49,0,0,1,13.24-21.69,162.49,162.49,0,0,1,16.28-17.91A131.55,131.55,0,0,1,1293.33,396c1.72.53,2,2.13,2.09,3.59.43,4.2.64,8.42,1.09,12.62.47,4.35,1.12,8.68,1.68,13a23.9,23.9,0,0,1,.18,2.54c.08,2.71.41,5.38.7,8.06.51,4.7.22,9.5.22,14.26a3.85,3.85,0,0,1-2,3.3,23.24,23.24,0,0,1-4.71,2.46q-7.93,2.75-16,5.21c-7.49,2.28-15.1,4.14-22.4,7.08-1.19.48-2.38,1-3.55,1.51-2.79,1.32-5.45,2.79-6.88,6-.24.54-1,.83-1.48,1.23l-10.09-1.66c.87-1.58,1.68-3.2,2.63-4.71,2.42-3.89,4.91-7.72,7.42-11.65C1241.62,457.78,1241.08,457,1240.55,456.19Z"/><path class="cls-18" d="M1232.24,475.16l10.09,1.66c.19.46.57.92.57,1.37,0,4.38-.11,8.75-.18,13.12l-6.8-.87a14.85,14.85,0,0,0-3.22.34,17.67,17.67,0,0,1-10.11.17,8.09,8.09,0,0,0-1.85-.09c-1-1.23-2.34-1.07-3.63-1.14-1.23-.76-2.51-1.43-3.66-2.29-1.83-1.37-2-3.16-.24-4.57a22.83,22.83,0,0,1,4.86-3.09c2.75-1.28,5.62-2.27,8.44-3.38Z"/><path class="cls-9" d="M1232.24,475.16l-5.73,1.23q6.39-9.78,12.8-19.52c.24-.36.82-.46,1.24-.68.53.8,1.07,1.59,1.74,2.61-2.51,3.93-5,7.76-7.42,11.65C1233.92,472,1233.11,473.58,1232.24,475.16Z"/><path class="cls-9" d="M1217.11,489.72c1.29.07,2.66-.09,3.63,1.14q-2.37,3.75-4.73,7.49a3.44,3.44,0,0,1-3.51,1.9c-.8-1.85,0-3.3.88-4.71C1214.6,493.58,1215.86,491.66,1217.11,489.72Z"/><path class="cls-2" d="M1249.44,310.82a11.76,11.76,0,0,1,.18-2.93c1-3,.83-6.12.68-9.23,2.23,0,4.47-.17,6.7,0a51.07,51.07,0,0,0,18.84-2.41,11.69,11.69,0,0,1,1.38-.36c.12,0,.27.16.67.41a4.92,4.92,0,0,1-.56,1.6,35.37,35.37,0,0,1-18.43,12A37.93,37.93,0,0,1,1249.44,310.82Z"/><path class="cls-25" d="M326.91,720.18c8.3-.35,14.77-5,21-10.22a49.57,49.57,0,0,0,7.1-7.42,13.71,13.71,0,0,0-2.28-1.12c-7-1.7-13-5.6-18.47-10.38-1.59-1.38-3-3-3.37-5.06.58-1.26,1.43-1.17,2.2-1.19,3.24-.07,6.31.9,9.38,1.86,4.89,1.54,9.83,3,14.65,4.77,5.36,2,9.41-.12,12.8-4.23a27.9,27.9,0,0,0,5.89-13.75c.43-2.83,1.22-5.59.67-8.58a19.37,19.37,0,0,0-8.37-12.53A40.38,40.38,0,0,0,357.75,647L351.83,645l-.12-1.16a53.52,53.52,0,0,0,12.59-8.94,31.32,31.32,0,0,1,3.56,1.4c6.49,3.47,13.48,4.8,20.6,5.88a74,74,0,0,0,11.87.91c2.39,0,4.77.15,7.1-.76,1.24-.48,2.19.76,1.76,2.08a6.6,6.6,0,0,1-.59,1.39,113.6,113.6,0,0,1-12.07,17.64,52.59,52.59,0,0,1-14.85,11.83c-1.06.57-2.52.85-2.53,3a10.31,10.31,0,0,0,1.54.63c5.75,1.5,11.27,3.49,16.25,7.08a15.63,15.63,0,0,1,5.37,7.59,5.69,5.69,0,0,1,.31,3c-.8,3.62-1.41,7.32-3.11,10.64-2.22,4.34-5.24,7.63-9.92,8.93a7.62,7.62,0,0,1-4.18.13c-7.1-1.83-14.23-3.51-21.35-5.25a12.94,12.94,0,0,0-7.28.16,7.93,7.93,0,0,0,.91,2,24.68,24.68,0,0,0,2.9,2.61,45.82,45.82,0,0,0,17.9,8.11,14.66,14.66,0,0,1,1.58.52,2.38,2.38,0,0,1-1.19,2.77c-5.22,3.55-10.21,7.4-16.06,10-8.33,3.65-15.46,1.91-22.44-3.39a60.71,60.71,0,0,1-8.51-8.15C330.25,723.7,328.16,722.38,326.91,720.18Z"/><path class="cls-25" d="M364.35,585.27c1.9-.16,3.8-.35,5.71-.48,4.93-.36,9.86-.66,14.79-1,3.37-.27,6-2.14,8.21-4.73,1-1.13,1.85-2.31,2.77-3.47,3.43.68,6.89,1.22,10.28,2.08a30.07,30.07,0,0,1,10.88,5,16.85,16.85,0,0,1,6,7.68c1.57,4.28,2.91,8.62,2.73,13.32-.06,1.7,0,3.4,0,5.1.07,7.68-3.64,13.23-9.09,17.58a12,12,0,0,1-7.69,2.45q-4.55,0-9.11,0a21.71,21.71,0,0,0-6.63.72c-1.63.52-3.48.23-5.24.3-4,.16-7.92-.21-11.89.84-2.57.67-5.41.19-8.13.23,1-1.53,1.94-3.08,3-4.57a125.75,125.75,0,0,0,12-21.86,21.21,21.21,0,0,0,.73-3.25c-3.48.32-6.6.83-9.72.82a64.94,64.94,0,0,1-9.93-.86c-3.12-.49-6.19-1.4-9.28-2.13a8.29,8.29,0,0,1,.86-2.24c2.51-3.15,5.14-6.21,7.67-9.35A12,12,0,0,0,364.35,585.27Z"/><path class="cls-25" d="M315.32,638.94c-4.08-.75-8.16-1.59-12.26-2.23-4.73-.74-9.51-1.23-14.25-2a38.39,38.39,0,0,1-6-1.51,5.14,5.14,0,0,1-3.65-3.43c.58-.61,1.12-1.65,1.88-1.91a37.88,37.88,0,0,1,7.86-2,86.17,86.17,0,0,1,10.54-.12,16.64,16.64,0,0,1,8.23,2.52c5.29,3.16,10.48,6.52,15.7,9.81.25.16.37.53.56.81Z"/><path class="cls-9" d="M364.35,585.27a12,12,0,0,1-1.1,2.14c-2.53,3.14-5.16,6.2-7.67,9.35a8.29,8.29,0,0,0-.86,2.24c-4.64-.68-8.79-2.72-12.79-5.17a9.56,9.56,0,0,1-1.86-1.57,2.32,2.32,0,0,1,.8-4,15.35,15.35,0,0,1,3.63-1.16c3.46-.51,6.93-.87,10.39-1.28,1.74-.2,3.47-.44,5.21-.55C361.51,585.18,362.93,585.26,364.35,585.27Z"/><path class="cls-25" d="M347,646.07l-11.55,8.69c-2-1.86-4-3.69-5.9-5.62-.39-.39-.41-1.19-.6-1.8a10,10,0,0,0,4.71-4.2,11.47,11.47,0,0,1,1.85,0c3.82.52,7.63,1.08,11.45,1.63C347,645.17,347,645.62,347,646.07Z"/><path class="cls-14" d="M333.68,643.14a10,10,0,0,1-4.71,4.2c-2-.14-3.44-1.69-4.84-2.89a23.68,23.68,0,0,0-7.73-4.6c-.41-.14-.72-.6-1.08-.91l8.57-.05a5.81,5.81,0,0,1,1.84.24C328.4,640.42,331,641.8,333.68,643.14Z"/><path class="cls-9" d="M284.65,666.62c.18,2.57-1.39,4-3.1,5.32a1.51,1.51,0,0,1-2.26-1.05c-.12-1.65,0-3.33.08-5Z"/><path class="cls-14" d="M354.36,557.65a2.71,2.71,0,0,1,.43-.81c.61-.51,1.29-.89,2-.24a.94.94,0,0,1-.09.76,14.33,14.33,0,0,1-2,.6C354.6,558,354.47,557.76,354.36,557.65Z"/><path class="cls-9" d="M347,646.07c0-.45,0-.9,0-1.35l4.73-.9.12,1.16A7.15,7.15,0,0,0,347,646.07Z"/><path class="cls-14" d="M361.89,555.23c-.79.29-1.47.55-2.17.77a.47.47,0,0,1-.37-.23c0-.29,0-.75.13-.83a7.78,7.78,0,0,1,1.73-.62C361.32,554.3,361.53,554.73,361.89,555.23Z"/><path class="cls-14" d="M364,553.5l.33-.14.09.52a1,1,0,0,1-.35-.08C364,553.75,364,553.6,364,553.5Z"/><path class="cls-6" d="M1196.56,608.13c.1,5.22.12,10.43,0,15.37-1.63,1.64-3.3,1.14-4.82,1.15-11.11,0-22.23,0-33.34,0a26.53,26.53,0,0,1,3.09-9c3.09-6,7.88-8.48,14.23-8,5.86.43,11.74.69,17.61.94A16.11,16.11,0,0,0,1196.56,608.13Z"/></g></g></svg>